<svg xmlns="http://www.w3.org/2000/svg" viewBox="0 0 1760 1480"><title>Squash network</title><path fill="#1b2430" fill-rule="evenodd" d="M 882 51.2 C 880.6 51.7, 877.2 52.6, 874.5 53.1 C 863.7 55.3, 842.2 60.1, 837.4 61.5 C 834.6 62.3, 831.5 63, 830.4 63 C 829.4 63, 823.8 64.1, 818 65.5 C 801.3 69.4, 787.3 72.7, 777 75 C 771.8 76.1, 762.8 78.1, 757 79.5 C 751.2 80.8, 741.1 83.1, 734.5 84.5 C 727.9 86, 717.8 88.3, 712 89.6 C 706.2 90.9, 696.3 93.2, 690 94.6 C 683.7 96, 675.1 98, 671 99.1 C 660.3 101.7, 641.3 105.9, 635.5 106.9 C 632.7 107.4, 626.5 108.7, 621.5 110 C 603.9 114.2, 604.9 113.9, 606 116 C 607.6 119, 608.3 129.9, 607.2 134.6 L 606.3 138.8 610.4 139.3 C 612.6 139.6, 618.3 140.3, 623 140.9 C 627.7 141.5, 634.4 142.5, 638 143 C 641.6 143.6, 649.7 144.7, 656 145.5 C 662.3 146.3, 670 147.5, 673 148 C 676 148.5, 689.1 150.3, 702 152 C 727.4 155.4, 789.2 164, 805.6 166.5 C 820.2 168.7, 819.5 168.9, 820.6 162.8 L 821.5 157.5 806.5 155.3 C 798.2 154.1, 788.4 152.7, 784.5 152 C 780.6 151.4, 772.1 150.3, 765.5 149.5 C 758.9 148.7, 740.9 146.3, 725.5 144.1 C 710.1 141.9, 690.5 139.2, 682 138 C 665 135.7, 659.1 134.9, 645.5 132.6 C 640.5 131.7, 630.9 130.4, 624.1 129.5 C 604.5 127.1, 605.1 124.6, 626 120.5 C 633.4 119, 643.5 116.8, 648.5 115.5 C 653.5 114.3, 663.1 112, 670 110.6 C 676.9 109.1, 686.1 107, 690.5 106 C 705.3 102.5, 719.4 99.3, 731.5 96.6 C 738.1 95.2, 751.4 92.1, 761 89.9 C 770.6 87.6, 780.8 85.4, 783.5 84.8 C 790 83.6, 809.3 79.5, 819.5 77.1 C 823.9 76, 831.5 74.3, 836.5 73.2 C 841.5 72, 851.1 69.8, 858 68.1 C 864.9 66.5, 874 64.4, 878.3 63.4 L 886.1 61.7 885.4 56.1 C 884.6 49.4, 885 50, 882 51.2 M 932.8 65.5 L 930.1 70 945.7 80.3 C 954.4 85.9, 972.7 98, 986.4 107.1 L 1011.4 123.6 1014.5 119.1 L 1017.5 114.5 977.2 87.8 C 955 73, 936.6 61, 936.2 61 C 935.8 61, 934.3 63.1, 932.8 65.5 M 885.5 89.8 C 880.6 99.5, 873.8 113.5, 870.4 120.9 L 864.1 134.2 869.3 136.9 L 874.5 139.5 886.6 114 C 893.2 100, 899.9 86.1, 901.4 83.2 C 902.9 80.2, 904 77.7, 903.8 77.6 C 903.6 77.5, 901.4 76.2, 898.9 74.7 L 894.3 72.1 885.5 89.8 M 1084 140.4 L 1084 145.8 1094.8 146.4 C 1100.7 146.7, 1123 147.3, 1144.5 147.6 C 1166 148, 1186.4 148.4, 1190 148.5 C 1193.6 148.6, 1218.7 149.1, 1245.8 149.5 L 1295 150.3 1295 147.8 C 1295 146.4, 1295.3 143.9, 1295.6 142.3 L 1296.2 139.3 1250.3 138.6 C 1225.1 138.3, 1199.3 137.8, 1193 137.6 C 1186.7 137.3, 1164.4 136.9, 1143.5 136.6 C 1122.6 136.2, 1100.7 135.7, 1094.8 135.5 L 1084 135 1084 140.4 M 1004.8 139.5 C 1004.5 139.8, 1000.9 140.5, 996.9 140.9 C 989.8 141.8, 978.9 143.4, 959.5 146.6 C 954.5 147.4, 947.6 148.5, 944 149 C 940.4 149.5, 933.2 150.7, 928 151.5 C 922.8 152.4, 915.4 153.5, 911.5 154 C 896.9 155.9, 888.5 157.1, 888.3 157.4 C 888.1 157.6, 888.2 160.2, 888.6 163.2 L 889.2 168.6 894.9 167.9 C 898 167.6, 903 166.8, 906 166.2 C 909 165.6, 916.2 164.4, 922 163.5 C 927.8 162.6, 935 161.5, 938 161 C 941 160.5, 948.2 159.4, 954 158.5 C 983.8 154.1, 1008.2 150.1, 1008.7 149.6 C 1008.9 149.5, 1008.7 147, 1008.3 144.2 C 1007.8 139.6, 1006.5 137.8, 1004.8 139.5 M 529.9 157.3 C 523.1 163.4, 506.9 178.3, 493.9 190.4 C 481 202.6, 463.2 219.1, 454.4 227.2 C 445.7 235.2, 437.3 243.1, 435.9 244.7 C 434.5 246.2, 430.4 250.2, 426.8 253.6 L 420.3 259.7 424.1 263.8 L 427.9 267.9 438.2 258.1 C 443.9 252.8, 456.8 240.5, 466.9 230.9 C 491.3 207.8, 502.2 197.7, 517.1 184.5 C 523.9 178.5, 534 169.2, 539.4 163.9 L 549.4 154.2 545.8 150.2 L 542.3 146.3 529.9 157.3 M 1080.1 155.7 C 1077.4 161.3, 1075.8 160.1, 1100.9 172 C 1111.7 177.2, 1127.9 184.9, 1137 189.3 C 1146.1 193.6, 1155.5 198, 1158 199 C 1160.5 200, 1177.1 208, 1195 216.7 C 1212.9 225.4, 1229.3 233.3, 1231.5 234.2 C 1233.7 235.2, 1238.2 237.1, 1241.5 238.5 C 1252.8 243.5, 1251.8 243.5, 1254.1 238.4 C 1255.3 236, 1256.1 233.8, 1255.9 233.6 C 1254.7 232.7, 1233.1 222.1, 1225 218.5 C 1205.6 209.8, 1158.8 187.7, 1125.5 171.5 C 1117.2 167.5, 1105.3 161.9, 1099 159.1 C 1092.7 156.2, 1086.3 153.3, 1084.9 152.5 C 1082.4 151.1, 1082.3 151.2, 1080.1 155.7 M 554.7 165.2 C 553.8 168.1, 549.6 182, 545.5 196 C 541.3 210, 536.4 226.7, 534.4 233 C 532.5 239.3, 529 251.2, 526.6 259.5 C 517.8 289.9, 509.8 316.8, 504.6 333.9 C 497.7 356.5, 490 383.5, 490 385.2 C 490 386.7, 500 389.4, 501.1 388.2 C 501.4 387.8, 506.8 369.7, 513 348 C 519.1 326.3, 526.8 299.9, 530 289.5 C 533.2 279.1, 540.6 254.3, 546.5 234.5 C 552.4 214.7, 559.4 191.1, 562.2 182 C 568.4 161.9, 568.3 162.8, 564 161.8 C 562.1 161.3, 559.6 160.7, 558.4 160.4 C 556.7 159.9, 556.1 160.6, 554.7 165.2 M 1306.5 169.9 C 1306.3 170.4, 1304.2 175.7, 1302.1 181.6 C 1299.9 187.6, 1295.9 198.7, 1293.1 206.4 C 1287.6 221.2, 1287.4 222, 1289 222 C 1289.6 222, 1292 222.9, 1294.2 224 C 1299 226.3, 1299 226.3, 1299 225 C 1299 224.5, 1303 213.2, 1308 199.9 C 1317.7 173.9, 1317.9 173.2, 1315.2 172.4 C 1314.3 172.1, 1312.1 171.2, 1310.3 170.5 C 1308.5 169.7, 1306.8 169.5, 1306.5 169.9 M 884.8 184.2 L 882.2 189 892.9 194.7 C 898.7 197.8, 906.4 202, 910 204 C 913.6 206.1, 924.1 211.8, 933.5 216.8 C 942.9 221.7, 959.7 230.7, 971 236.8 C 982.3 242.8, 1001.6 253.2, 1014 259.9 L 1036.5 272 1038.8 267.4 C 1040.1 264.9, 1041 262.7, 1040.8 262.5 C 1039.7 261.6, 1010.4 245.6, 994 237 C 983.3 231.3, 962.4 220.1, 947.5 212 C 932.6 203.9, 913 193.2, 903.9 188.3 L 887.4 179.3 884.8 184.2 M 810.3 211.7 C 800.5 223, 787.2 238.3, 780.8 245.6 C 774.4 253, 764.7 264.3, 759.3 270.8 C 754 277.2, 747.1 285.1, 744.2 288.4 C 741.3 291.6, 739.2 294.5, 739.7 294.9 C 740.1 295.2, 742.1 297, 744.1 298.8 L 747.7 302.1 761.7 285.8 C 769.3 276.8, 778.5 266.1, 782 261.9 C 785.6 257.7, 798 243.3, 809.5 230.1 C 821 216.8, 832 204.2, 833.7 202.1 L 836.9 198.4 832.6 194.7 L 828.2 191.1 810.3 211.7 M 1242.5 250.6 C 1241.4 250.9, 1236.7 251.7, 1232 252.6 C 1227.3 253.4, 1220.6 254.7, 1217 255.5 C 1213.4 256.3, 1205.3 257.9, 1199 259 C 1185.9 261.4, 1177 263, 1162 265.9 C 1156.2 266.9, 1147.7 268.5, 1143 269.4 C 1119.3 273.8, 1120.6 273.3, 1121.5 278.2 C 1122.6 284.1, 1123 284.3, 1130.1 283 C 1133.6 282.4, 1140.3 281.2, 1145 280.4 C 1153.7 278.9, 1163.8 277.1, 1177 274.5 C 1187.5 272.5, 1203.9 269.4, 1214.5 267.5 C 1219.5 266.6, 1226.9 265.3, 1231 264.5 C 1235.1 263.7, 1241.6 262.5, 1245.3 261.9 L 1252.2 260.7 1251.6 257.7 C 1251.3 256.1, 1251 253.7, 1251 252.4 C 1251 249.9, 1248.4 249.4, 1242.5 250.6 M 1311.4 257.8 C 1311.1 258.7, 1310.3 260.8, 1309.8 262.3 C 1308.5 265.6, 1308.3 265.3, 1314 267.2 C 1339.3 275.8, 1397.5 295.1, 1413 300 C 1423.7 303.3, 1437.9 308.1, 1444.5 310.5 C 1461.9 316.7, 1465.3 317.7, 1465.8 316.2 C 1466 315.6, 1467.3 313.4, 1468.6 311.4 C 1470 309.4, 1471 307.7, 1470.8 307.5 C 1470.6 307.4, 1466.2 305.9, 1461 304.2 C 1438.6 297, 1348.9 267.7, 1343 265.6 C 1333.3 262.1, 1314 256, 1312.9 256 C 1312.4 256, 1311.7 256.8, 1311.4 257.8 M 1298.5 276.6 C 1296.8 277.9, 1294.9 279, 1294.2 279 C 1292.4 279, 1292.8 281, 1295.6 286 C 1297 288.5, 1300.9 295.7, 1304.2 302 C 1307.6 308.3, 1313.6 319.5, 1317.7 326.8 C 1321.7 334.1, 1325 340.2, 1325 340.4 C 1325 340.7, 1331 352.1, 1344.1 376.9 C 1346.4 381.1, 1350.3 388.2, 1352.8 392.7 L 1357.3 400.9 1361.9 398.3 C 1364.4 396.8, 1366.6 395.6, 1366.7 395.5 C 1367.2 395.3, 1351.6 365.6, 1341.7 348 C 1337.9 341.1, 1331.6 329.4, 1327.7 322 C 1319.3 305.7, 1303 275.8, 1302.1 274.8 C 1301.8 274.5, 1300.2 275.2, 1298.5 276.6 M 1024.5 291 C 1021.2 291.4, 1014.7 292.3, 1010 292.9 C 1005.3 293.6, 995.6 294.7, 988.5 295.5 C 981.4 296.3, 971.7 297.4, 967 298 C 962.3 298.6, 954.7 299.5, 950 300 C 945.3 300.6, 937.9 301.5, 933.5 302 C 929.1 302.6, 919.6 303.7, 912.5 304.5 C 905.4 305.3, 894.8 306.5, 889 307.4 C 883.2 308.2, 874 309.3, 868.5 310 C 863 310.6, 854.9 311.5, 850.5 312.1 C 825.9 315, 806.6 317.3, 800 318 C 790.6 319.1, 777.6 320.7, 768.5 322 C 764.6 322.5, 761 322.9, 760.3 323 C 759.3 323, 759.5 332.4, 760.5 333.7 C 760.5 333.9, 764.4 333.5, 769.1 332.9 C 773.7 332.4, 784.2 331.3, 792.5 330.4 C 800.8 329.6, 810.4 328.5, 814 328 C 817.6 327.5, 824.8 326.6, 830 326.1 C 838.9 325.1, 855.6 323.1, 873 320.9 C 877.1 320.4, 884.3 319.5, 889 318.9 C 893.7 318.3, 900.6 317.5, 904.5 317 C 908.4 316.5, 919.4 315.2, 929 314.1 C 938.6 312.9, 947.9 311.7, 949.5 311.5 C 951.1 311.2, 956.8 310.5, 962 309.9 C 967.2 309.3, 974.9 308.4, 979 307.9 C 992.7 306.1, 1001.4 305.1, 1015.5 303.6 C 1035.8 301.5, 1034.8 302, 1033.6 295.4 C 1033 292.5, 1032.1 290.1, 1031.5 290.1 C 1031 290.2, 1027.8 290.6, 1024.5 291 M 373.5 300.1 C 371.8 301.9, 361.9 311, 351.4 320.4 C 340.9 329.8, 326.9 342.4, 320.3 348.5 C 313.8 354.6, 302.4 364.9, 295 371.5 C 287.6 378.1, 274.5 390, 266 398 C 253.2 410, 230 431, 206 452.4 C 203.5 454.6, 196.8 460.8, 191.1 466.2 L 180.8 475.9 186.3 478.6 L 191.8 481.3 197.2 476.4 C 200.2 473.7, 216 459.1, 232.5 444 C 248.9 428.9, 265.4 413.8, 269 410.5 C 272.7 407.2, 286.8 394.4, 300.4 382 C 329.5 355.5, 338.5 347.4, 350 337.2 C 354.7 333.1, 363.8 324.7, 370.3 318.6 C 376.9 312.5, 382.8 307.1, 383.6 306.7 C 384.8 306, 384.4 305, 381.4 301.7 C 376.6 296.4, 376.9 296.4, 373.5 300.1 M 418 307.6 C 416.1 308.9, 414 310, 413.3 310 C 411.3 310, 411.5 310.4, 419.4 324.9 C 423.4 332.4, 429.5 343.7, 432.7 350 C 447.2 377.9, 455.9 394, 456.4 394 C 456.5 394, 459 392.7, 461.8 391.2 L 466.9 388.4 462.3 380.5 C 459.8 376.1, 454.8 366.9, 451.3 360 C 447.7 353.1, 443.1 344.4, 441 340.5 C 433.9 327.3, 428.7 317.5, 425.8 311.8 C 422.2 304.7, 422.2 304.7, 418 307.6 M 386.3 311.3 C 385.7 313.6, 381.8 324.7, 377.7 336 C 369.4 358.3, 355.9 396.5, 347.5 421 C 339.5 444.3, 329.7 472.1, 325.1 484.9 C 322.9 491.2, 321 496.5, 321 496.6 C 321 496.7, 323.4 497.5, 326.2 498.4 C 332.6 500.3, 332.5 500.4, 336.4 488.8 C 340.1 478, 349.8 450.4, 356.5 431.5 C 359.5 423.2, 366.6 403, 372.4 386.5 C 378.1 370, 386.3 347.1, 390.5 335.5 C 399.7 310, 399.4 312.1, 394.2 310.5 C 391.9 309.8, 389.4 308.7, 388.7 308.2 C 387.7 307.4, 387.2 308.1, 386.3 311.3 M 1022.5 324.6 C 1013.7 331.5, 1003.1 339.4, 999 342.2 C 989.7 348.5, 981.5 355.2, 981.3 356.5 C 981.3 357.1, 982.7 359.2, 984.4 361.3 L 987.6 365.2 1004.1 352.8 C 1013.1 346, 1025.2 337, 1031 332.7 C 1036.8 328.5, 1042.5 324.1, 1043.8 323 L 1046.1 321.1 1042.8 316.6 C 1041 314.1, 1039.3 312.1, 1039 312.1 C 1038.7 312.1, 1031.3 317.7, 1022.5 324.6 M 1100.5 327.6 C 1098.3 328.9, 1096.1 330.1, 1095.6 330.3 C 1095.1 330.4, 1098 336, 1102.1 342.5 C 1106.1 349.1, 1113.5 361.5, 1118.5 370 C 1128.1 386.1, 1145.9 416.1, 1153.7 429 C 1161.3 441.6, 1161.5 441.9, 1159.6 443.8 C 1158.1 445.3, 1157.6 445.3, 1153.2 443.6 C 1118.1 430.1, 1054.1 417, 1006.4 413.5 C 977 411.3, 917.6 414.1, 885.4 419.1 L 877.3 420.4 872.4 417.3 C 867.6 414.3, 846.5 402.3, 797.5 374.7 C 784.3 367.3, 769.7 359, 765 356.3 L 756.5 351.4 753.8 355.7 C 752.2 358.1, 751 360.4, 751 360.8 C 751 361.2, 757 364.9, 764.2 368.9 C 771.5 373, 784 380.1, 792 384.8 C 818.4 400.3, 840.1 412.6, 848.8 416.9 C 857.7 421.4, 857.3 424.7, 847.5 426.4 C 843 427.2, 826.5 431.8, 801.8 439.1 C 778.1 446.1, 755.9 454.9, 731.9 467 C 717.4 474.3, 713.2 476.7, 693.2 489.4 C 680.2 497.7, 646.7 523.6, 632.3 536.6 C 621.2 546.6, 617.9 542.6, 625.4 528.3 C 629.6 520.3, 649.4 479.6, 659.2 459 C 661.5 454.3, 671.3 434.1, 681.1 414.1 C 691 394.1, 699 377.5, 699 377.1 C 699 376.8, 696.6 375.4, 693.7 373.9 L 688.4 371.4 681.8 384.9 C 671.5 405.8, 643.4 463.9, 626 500 C 607.7 537.9, 609.4 536.3, 598.4 526.5 C 588.3 517.5, 542.2 474.9, 527.4 460.7 L 522.2 455.8 518.6 459.6 C 516.7 461.8, 515 463.8, 515 464.1 C 515 464.5, 524.1 473.3, 535.2 483.7 C 546.4 494.2, 562.4 509.2, 570.9 517.1 C 579.3 525, 591 535.7, 596.9 540.9 C 602.7 546, 607.8 550.8, 608.2 551.5 C 610.9 556.1, 618.1 555, 625.6 548.7 C 627.2 547.4, 630.1 545.5, 632 544.5 C 633.9 543.5, 640.6 539.4, 647 535.2 C 661.9 525.6, 660.7 526.3, 676 517.5 C 692.1 508.3, 713 497.7, 726.5 492.1 C 732 489.7, 740.7 486.1, 745.9 483.9 C 756.2 479.5, 792.7 467.1, 803 464.5 C 806.6 463.6, 813.1 461.8, 817.5 460.5 C 824.9 458.4, 832.8 456.7, 857 452 C 873.7 448.7, 889.3 446.5, 906.5 445 C 913.1 444.4, 920.8 443.8, 923.5 443.5 C 938.8 442.1, 971.4 441.9, 994 442.9 C 1023.7 444.3, 1028.5 444.8, 1053.5 449.5 C 1066.7 452, 1106.3 462.1, 1108.8 463.6 C 1112.5 466, 1111.6 468.8, 1106.8 470.1 C 1098.7 472.2, 1087.4 475.8, 1071 481.5 L 1054.5 487.2 1039.5 485.1 C 998 479.4, 941.8 477.7, 912.5 481.4 C 905.4 482.3, 895.5 483.5, 890.5 484.1 C 870 486.5, 824.8 496, 812 500.5 C 809.5 501.4, 803.6 503.2, 798.8 504.5 C 771.4 512.3, 705.5 542.9, 679.3 560.2 C 677.2 561.5, 672.6 564.4, 669 566.5 C 659.8 571.9, 633.4 589.6, 628 593.9 C 625.5 595.9, 620.2 600.3, 616.1 603.7 C 612.1 607.1, 603.3 613.6, 596.6 618.1 C 567 638.2, 557.6 644.8, 541 657.2 C 521.7 671.7, 513.3 674.5, 509 667.7 C 504.8 660.8, 503.6 640.8, 506.9 628.5 C 512.4 607.2, 523.8 589.7, 549.3 563.3 C 565.7 546.3, 563 544.2, 540.7 556.6 C 497.9 580.2, 471 611.4, 461 648.8 C 457.4 662.4, 455.5 666.2, 449.8 671.6 C 443.5 677.6, 440 678, 440 672.6 C 440 670.4, 446.8 636.8, 450.5 621 C 453.9 606.2, 457.6 589.3, 461.6 569.2 C 463.5 559.7, 465.9 548, 467.1 543.2 C 468.2 538.4, 471.1 524.8, 473.6 513 C 476 501.2, 478.8 488.4, 479.6 484.7 C 480.5 481, 481.1 477.8, 480.9 477.6 C 480.3 477.1, 469.5 475.1, 469.2 475.4 C 468.7 475.9, 461 512.2, 447.9 575.8 C 446.9 580.9, 445.1 588.7, 444 593.1 C 442.9 597.5, 440.6 607.9, 439.1 616.3 C 435.4 635.4, 425.2 679.4, 423.5 683.7 C 422.7 685.6, 421.2 687.1, 419.8 687.5 C 400.4 691.9, 398.1 691.4, 393.8 682.1 C 386.9 667.1, 340.1 572.3, 338.1 569.2 C 337.2 567.7, 327 570.6, 327 572.4 C 327 572.9, 337.5 594.5, 350.3 620.4 C 363.2 646.3, 376.5 673.4, 380 680.6 C 383.4 687.8, 387.1 694.2, 388.2 694.9 C 389.3 695.6, 394.4 696.6, 399.6 697.1 C 425.3 699.6, 455.3 703.1, 468 705 C 472.1 705.6, 478.2 706.5, 481.5 707 C 492.8 708.6, 515.5 712, 522.7 713.1 C 540.7 716, 547.3 712.8, 576.3 687.5 C 589.7 675.8, 606.4 661.8, 613.2 656.5 C 616.8 653.8, 624.1 648, 629.6 643.8 C 671.9 610.9, 687.2 599.6, 699.5 592.1 C 703.4 589.8, 710.3 585.5, 715 582.6 C 733.5 571.1, 781.6 548.4, 799.5 542.7 C 803.9 541.3, 813.1 538.3, 820 536.1 C 836.6 530.8, 853.3 526.3, 861.2 525 C 864.8 524.5, 869 523.6, 870.6 523.1 C 872.2 522.6, 878.5 521.5, 884.5 520.6 C 890.5 519.7, 898.2 518.5, 901.5 518 C 918.3 515.3, 957 514, 986 515.1 C 1017.4 516.4, 1043.7 520, 1076.5 527.6 C 1080.3 528.5, 1086 529.8, 1089 530.5 C 1178.9 551.3, 1266.3 605.2, 1296.5 658.5 C 1303.1 670, 1314.5 688.8, 1317.6 693.1 C 1321.7 698.7, 1328.3 702, 1354.1 711.5 C 1367.4 716.5, 1412.9 728.1, 1432 731.4 C 1437.2 732.3, 1443.8 733.5, 1446.5 734 C 1449.2 734.5, 1456.7 735.6, 1463 736.5 C 1469.3 737.3, 1477.4 738.4, 1481 739 C 1492.2 740.6, 1526.9 742.2, 1540.5 741.6 C 1556.7 740.9, 1571.7 738.1, 1588.7 732.4 C 1605.6 726.9, 1608.2 725.5, 1607.8 722.7 C 1607.5 720.5, 1607.3 720.5, 1587.5 720.4 C 1569.1 720.4, 1554.8 719.2, 1534.2 716 C 1504.8 711.4, 1504.7 711.4, 1475.8 705.5 C 1468.1 703.9, 1465.5 702.7, 1464.6 700.4 C 1463.8 698.4, 1473 671.7, 1485.5 639.5 C 1495.6 613.7, 1503.8 591.6, 1504.2 589.3 C 1504.4 588.4, 1502.6 587.3, 1499.3 586.1 L 1494.1 584.4 1492 589.9 C 1490.8 593, 1487.1 602.9, 1483.9 612 C 1480.6 621.1, 1477.3 630.1, 1476.5 632 C 1472.2 642.5, 1461.6 670.2, 1457.5 681.8 C 1451.4 698.6, 1450.8 699.1, 1440.6 696.6 C 1393 684.6, 1358.2 666.1, 1339.2 642.6 C 1312.9 609.9, 1299.3 597, 1265 571.8 C 1234.7 549.5, 1183.4 523.2, 1142 508.6 C 1126.8 503.2, 1125 501.7, 1130.3 499.2 C 1134.2 497.3, 1188.4 497, 1195.5 498.8 C 1198.2 499.4, 1204.8 500.9, 1210 501.9 C 1253 510.6, 1289.6 527.1, 1330.8 556.5 C 1342.9 565.1, 1345.2 560.6, 1334.1 549.9 C 1320.3 536.6, 1289.5 512, 1274.8 502.3 C 1264.4 495.5, 1264.8 494.8, 1284.5 484.5 C 1291.7 480.7, 1302.9 474.7, 1309.5 471 C 1316.1 467.3, 1327.7 461.1, 1335.2 457.1 C 1342.8 453.1, 1349.2 449.6, 1349.4 449.1 C 1349.7 448.7, 1348.9 446.3, 1347.7 443.7 L 1345.4 439.1 1336.5 443.9 C 1331.5 446.5, 1317.6 454, 1305.5 460.5 C 1293.4 467, 1277.7 475.4, 1270.7 479.1 C 1263.6 482.9, 1256.8 486, 1255.5 486 C 1254.2 486, 1243.7 481.3, 1232 475.5 C 1220.4 469.7, 1204.5 462.2, 1196.7 458.9 C 1188.9 455.6, 1182 452.3, 1181.3 451.7 C 1180.1 450.5, 1170.5 434.6, 1150 400 C 1144.4 390.4, 1137.6 379.2, 1135.1 375.1 C 1132.6 371, 1127.6 362.5, 1124 356.3 C 1113.9 338.7, 1105.5 325, 1105 325.1 C 1104.7 325.2, 1102.7 326.3, 1100.5 327.6 M 1455.5 354.4 C 1450 359, 1440.8 366.9, 1435 371.9 C 1429.2 376.9, 1420.9 384.1, 1416.5 387.9 C 1412.1 391.7, 1406.7 396.6, 1404.6 398.8 L 1400.7 402.9 1404 406.7 C 1405.9 408.8, 1407.5 410.5, 1407.6 410.5 C 1407.7 410.5, 1413.8 405.3, 1421.2 398.9 C 1428.5 392.5, 1440.8 381.8, 1448.5 375.2 C 1456.2 368.5, 1464.6 361.1, 1467.2 358.8 L 1471.9 354.5 1469.2 350.3 C 1467.7 348, 1466.3 346.1, 1466 346 C 1465.7 346, 1461 349.8, 1455.5 354.4 M 667 356.6 C 630 377.9, 589.1 396.3, 546 411 C 535.8 414.5, 527.4 417.4, 527.2 417.5 C 527.1 417.6, 527.5 420.2, 528.1 423.2 L 529.2 428.7 547.4 422.5 C 563.6 416.9, 579.8 410.9, 599 403.3 C 612.2 398.2, 672.6 367.8, 677.7 363.8 C 678.7 363, 678.2 361.7, 675.9 358.4 C 672.4 353.2, 672.7 353.3, 667 356.6 M 1515.1 363.2 C 1512.2 364.7, 1507.3 366.2, 1504.1 366.6 L 1498.5 367.2 1498.8 380.9 C 1499 388.4, 1499.4 422.5, 1499.8 456.7 C 1500.2 490.9, 1500.7 519, 1501 519.3 C 1501.3 519.5, 1504 519.5, 1507.1 519.3 L 1512.8 518.8 1512.4 503.1 C 1511.5 470.9, 1510.3 376.5, 1510.7 375.2 C 1512.3 371.2, 1517 379.2, 1520.4 391.5 C 1521.1 394.2, 1523.2 400.3, 1524.9 405 C 1526.6 409.7, 1528.9 416, 1529.9 419 C 1530.9 422, 1533.2 428.3, 1535 433 C 1536.8 437.7, 1539 444, 1540 447 C 1544.9 461.9, 1556.4 494.3, 1572.1 537.5 C 1581.1 562.3, 1586.9 578.5, 1594.5 600 C 1595.8 603.6, 1598.3 610.1, 1600 614.5 C 1601.8 618.9, 1604 625.2, 1605 628.5 C 1607.1 635.3, 1615.3 658.6, 1622.9 679.7 C 1631.8 704.4, 1629.4 704.2, 1611 678.5 C 1606.3 672, 1598.6 661.5, 1593.9 655.1 C 1589.2 648.7, 1576.8 631.6, 1566.4 617 C 1540.6 581.1, 1536.9 576, 1536.1 576 C 1535.8 576, 1533.8 577.6, 1531.7 579.6 L 1527.9 583.1 1534.1 591.8 C 1537.6 596.6, 1544.7 606.4, 1550 613.5 C 1555.3 620.6, 1565.8 635, 1573.3 645.5 C 1580.8 656, 1590.1 668.8, 1593.9 674 C 1599.4 681.4, 1615.6 704.1, 1624.6 716.8 C 1625.6 718.1, 1626.2 717.9, 1630.1 715.3 C 1632.6 713.6, 1636.6 711.6, 1639 710.9 C 1641.5 710.2, 1643.8 709.4, 1644.3 709 C 1644.9 708.5, 1642.1 699.5, 1636.1 683 C 1635 680, 1632.1 671.4, 1629.5 664 C 1627 656.6, 1623.8 647.6, 1622.5 644 C 1621.2 640.4, 1616.1 626, 1611.1 612 C 1606.1 598, 1600.6 582.5, 1598.7 577.5 C 1596.8 572.5, 1593.7 563.8, 1591.7 558 C 1589.7 552.2, 1586.3 542.8, 1584.2 537 C 1580.1 526.2, 1556.8 460.7, 1554.5 453.5 C 1553.7 451.3, 1551.7 445.7, 1550 441 C 1548.3 436.3, 1544.9 426.9, 1542.5 420 C 1540.1 413.1, 1536.3 402.6, 1534 396.5 C 1531.7 390.4, 1528.5 382, 1526.9 377.8 C 1525.3 373.5, 1524 369.5, 1523.9 368.8 C 1523.9 368.1, 1523.1 365.9, 1522.2 364 L 1520.5 360.5 1515.1 363.2 M 1401.8 452.7 L 1398.1 456.3 1438.2 496.9 C 1460.2 519.2, 1478.5 537.6, 1478.9 537.7 C 1479.2 537.8, 1480.8 536.1, 1482.3 533.8 L 1485.1 529.8 1476.3 520.6 C 1451.4 494.7, 1406.5 449, 1406 449 C 1405.7 449, 1403.8 450.7, 1401.8 452.7 M 436 460.2 C 421.6 469.2, 394.1 486.5, 388 490.5 C 384.4 492.8, 377.9 496.9, 373.5 499.6 C 369.1 502.3, 362.7 506.3, 359.3 508.5 C 355.9 510.7, 352.3 513, 351.4 513.6 C 349.9 514.5, 349.8 515.1, 350.8 517.6 C 351.4 519.2, 352.4 521.7, 352.9 523.2 L 353.9 525.9 361.4 521.2 C 365.5 518.6, 378.2 510.6, 389.7 503.4 C 450.6 465, 451 464.7, 451 464 C 450.9 463.1, 444 456, 443.2 456.1 C 442.8 456.1, 439.6 458, 436 460.2 M 206.5 518.3 L 205.5 523.6 215.5 524.9 C 221 525.5, 228.2 526.5, 231.5 527 C 238.3 528.1, 256.1 530.7, 266.5 532.1 C 270.4 532.6, 274.6 533.2, 276 533.5 C 278.4 534, 278.7 533.7, 279.7 528.8 C 280.3 525.9, 280.7 523.4, 280.6 523.3 C 280.2 522.8, 264.6 520, 256.5 519 C 238.2 516.7, 226.3 515.1, 220 514.1 C 207.8 512.1, 207.6 512.2, 206.5 518.3 M 1473.8 553.5 C 1473.6 553.8, 1469.3 554.4, 1464.4 554.9 C 1454.3 556, 1433.9 558.5, 1423.5 560 C 1419.7 560.5, 1413.1 561.2, 1409 561.5 C 1404.9 561.8, 1398.6 562.5, 1395 563 C 1384.1 564.5, 1373 565.9, 1362.5 567.1 C 1357 567.7, 1346 569, 1338 570 C 1330 571.1, 1317.9 572.5, 1311 573.1 C 1293.5 574.7, 1290.7 576.2, 1296.6 580.9 C 1300.6 584.1, 1321.6 583.4, 1356 579 C 1360.1 578.5, 1367.8 577.6, 1373 577 C 1385.8 575.6, 1413.8 572.2, 1422.5 571.1 C 1426.3 570.5, 1433.3 569.6, 1438 569.1 C 1468 565.6, 1475 564.6, 1476 564 C 1476.7 563.5, 1476.9 561.6, 1476.4 558.2 C 1475.8 553.4, 1475.1 552.2, 1473.8 553.5 M 923 555.5 C 880.9 560.3, 837.4 582.2, 812.1 611.3 C 762 668.7, 758.1 744.8, 802.1 803.5 C 826.1 835.5, 861.1 858.9, 899.4 868.5 C 933.5 877, 956.6 877.4, 993.1 870.1 C 1040.9 860.5, 1085.3 827.7, 1108.3 785 C 1124.3 755.4, 1130.1 712, 1121.9 683.5 C 1111.3 646.8, 1097.8 624.5, 1072.3 601.5 C 1033.4 566.6, 977.1 549.3, 923 555.5 M 294.5 570.4 C 293.6 572.1, 289.7 578.9, 286 585.5 C 260.3 631.2, 236.8 660.1, 204.1 686.5 C 200 689.8, 193.9 694.8, 190.5 697.5 C 187.1 700.2, 180.7 705.4, 176.2 709 C 168.5 715.1, 168.1 715.6, 169.6 717.5 C 170.4 718.6, 171.9 720.7, 172.9 722.2 L 174.7 725 188.6 713.8 C 240.5 672.1, 255.1 657, 278 621.5 C 288.2 605.8, 307 573.8, 307 572.3 C 307 571.8, 304.6 570.6, 301.6 569.4 L 296.3 567.4 294.5 570.4 M 937 583 C 911.1 584.6, 884.6 593.5, 861.6 608.4 C 836.4 624.8, 815.6 652.6, 808.9 678.8 C 806.9 686.7, 806.9 686.8, 808.8 695.6 C 813.5 717.2, 821.5 731.9, 840.7 754.2 C 861.9 778.7, 877.7 789.8, 902.4 797.6 C 914.4 801.4, 915.2 805.7, 903.6 804.5 C 878 802, 840.7 784.7, 820.6 765.9 C 808.2 754.3, 807.8 759.4, 819.6 778.3 C 835.3 803.4, 853.4 819.7, 880.5 833.3 C 897.1 841.6, 907.9 844.4, 934.5 847.6 C 975.8 852.5, 1025.7 835.5, 1056.3 806.1 C 1071.8 791.4, 1093 754, 1093 741.6 C 1093 735.7, 1091.5 736.6, 1083.8 747 C 1073.3 761.2, 1050.2 779.7, 1034.3 786.6 C 1017.8 793.7, 1013 795.3, 1006.8 795.8 C 995.8 796.6, 997.5 794.4, 1015.5 785 C 1051.7 766.1, 1072.3 740.3, 1083.1 700.5 C 1089.2 678, 1088.2 671.6, 1075.7 649.5 C 1057.6 617.6, 1014 589.4, 975.1 584.6 C 958.2 582.5, 951 582.2, 937 583 M 295 709.1 C 268.6 709.8, 255.8 711.4, 232.5 717.2 C 228.1 718.3, 222 719.7, 219 720.4 C 216 721.2, 208.1 723.2, 201.5 725 C 194.9 726.8, 186.7 728.9, 183.2 729.8 L 177 731.5 177.6 735 C 178 736.9, 178.4 738.7, 178.6 738.9 C 178.9 739.2, 184.7 738.4, 199 736 C 223.3 731.9, 228.7 731.6, 260.5 731.6 C 293.3 731.6, 293.2 731.6, 333.3 737 C 336.4 737.4, 339.7 738.3, 340.5 739 C 343.5 741.5, 346.6 734.7, 297.3 835 C 288.5 852.9, 281 868.4, 280.6 869.6 C 280.1 871.3, 280.8 872, 285.2 874.1 C 289.5 876.1, 290.4 876.3, 290.8 875 C 291.1 874.2, 297.3 861.6, 304.6 847 C 311.9 832.4, 325.3 805.3, 334.4 786.7 C 350.5 753.6, 351 752.9, 353.7 753.2 C 355.8 753.4, 357.4 754.9, 360.2 759 C 362.2 762, 369.3 771.5, 375.9 780 C 382.5 788.5, 395.2 805, 404 816.7 C 412.8 828.4, 423.7 842.6, 428.3 848.3 C 432.8 854, 437.6 860.1, 439 861.9 L 441.6 865.2 446.3 862.3 L 451 859.3 446 852.4 C 443.2 848.6, 435.6 838.5, 428.9 830 C 422.3 821.5, 408.2 803, 397.7 789 C 387.1 775, 375.7 760, 372.3 755.7 C 364.6 746.2, 363.8 742.5, 369.8 743.3 C 377.1 744.3, 410.6 753.9, 417.6 757 C 422.9 759.3, 424 761.2, 430 779 C 431 782, 433.3 788.1, 435 792.5 C 436.7 796.9, 439 803, 440 806 C 441.1 809, 443.3 815.3, 445 820 C 446.7 824.7, 449 831, 450 834 C 451.1 837, 453.1 842.6, 454.5 846.5 C 455.9 850.4, 457.3 854.3, 457.6 855.2 C 458.1 856.6, 459.1 856.7, 463.8 856.3 C 467 856, 469.7 855.6, 469.9 855.4 C 470.4 854.9, 469.1 850.8, 465 840.5 C 463.3 836.1, 461 830, 460 827 C 458.9 824, 457 818.4, 455.6 814.5 C 454.2 810.6, 450.9 801.2, 448.2 793.5 C 445.5 785.8, 442.2 776.8, 440.9 773.4 C 436.9 762.9, 438.6 762.1, 452.3 767.9 C 457.3 770, 469.6 775.2, 479.5 779.3 C 502.6 789, 537.8 805.6, 549.3 812.1 C 554.2 815, 567.7 824, 579.3 832.4 C 614.2 857.2, 636.9 870.9, 674.4 889.7 C 700.2 902.6, 717.5 910.3, 726.8 913.1 C 736.5 915.9, 734.9 919.3, 722 922.8 C 696.7 929.6, 653 924, 622.4 910 C 618.6 908.3, 612.2 905.5, 608.3 903.9 C 594.5 898.4, 578.6 889.8, 562.2 878.9 C 547.6 869.2, 541 866.1, 541 868.8 C 541 877.3, 582.1 909.2, 633.5 940.7 C 669.5 962.7, 701 976.5, 747.5 990.8 C 772 998.3, 786.7 1002.3, 803.9 1006.5 C 811.7 1008.4, 811.7 1008.4, 819.7 1019 C 825.9 1027.3, 827.4 1031.5, 824.6 1032.6 C 822.4 1033.4, 819.8 1033.4, 756.8 1032.7 L 697 1031.9 697 1036.4 C 697 1038.8, 696.8 1041.4, 696.5 1042.2 C 696.1 1043.3, 708.1 1043.6, 765.2 1043.9 C 821.8 1044.1, 835 1044.5, 837.2 1045.6 C 840.2 1047.2, 839.1 1045.6, 864 1082.3 C 874.3 1097.6, 883 1110.4, 883.3 1110.7 C 884.1 1111.4, 892.5 1104.9, 892.2 1103.8 C 891.6 1101.8, 847.6 1036.2, 838.2 1023.4 C 830.1 1012.3, 831 1011, 845.4 1012.9 C 850.4 1013.6, 859.7 1014.8, 866 1015.6 C 894.8 1019.3, 965 1018, 985 1013.4 C 988.5 1012.6, 993.5 1012, 996 1012 C 1003.1 1012.1, 1022.3 1009.4, 1035.8 1006.4 C 1091.5 994.2, 1124.1 982.7, 1164.4 961.2 C 1191.8 946.6, 1219.4 928.9, 1229 919.8 C 1238.5 910.8, 1233.1 912.1, 1207.6 924.9 C 1167.5 944.9, 1096.2 969, 1054.2 976.6 C 1050.2 977.3, 1046.6 978.2, 1046.1 978.5 C 1045.6 978.8, 1041.8 979.5, 1037.8 980 C 1033.8 980.5, 1026.2 981.7, 1021 982.5 C 1009.4 984.4, 995.7 986, 987 986.5 C 983.4 986.7, 973.4 987.4, 964.7 988.1 C 938.5 990, 892.8 988.4, 867.5 984.5 C 865.9 984.2, 859.3 983.3, 853 982.5 C 832.3 979.6, 807 974.1, 776 965.5 C 771.3 964.2, 765.4 962.6, 762.8 961.9 C 757.7 960.7, 754 957.6, 755.6 956 C 756.1 955.5, 760.2 953.9, 764.5 952.6 C 768.9 951.3, 779 947, 787 943 C 803 935.1, 802.2 935.2, 816.5 938.5 C 826.1 940.7, 836.6 942.5, 859 945.6 C 901.4 951.5, 968.2 952.7, 997.5 948 C 1000.8 947.5, 1007.5 946.6, 1012.5 946 C 1024.8 944.4, 1039.3 942.1, 1046.7 940.4 C 1050.1 939.6, 1053.7 939, 1054.7 939 C 1056.6 939, 1086 930.9, 1107 924.7 C 1124.3 919.6, 1156.5 906.4, 1185.2 892.9 C 1199.5 886.1, 1204.8 883.3, 1222.5 873.3 C 1246.4 859.7, 1276.9 839.6, 1300.5 822 C 1307.7 816.7, 1318 809.2, 1323.5 805.4 C 1329 801.7, 1336.9 796.1, 1341 793 C 1354.3 783, 1357.7 782.1, 1363.4 787 C 1368.8 791.7, 1369.3 794.8, 1368.1 811.2 C 1365.6 842.6, 1352 865.5, 1316.7 897.7 C 1307.9 905.7, 1303 910.9, 1303.2 911.9 C 1304.2 916.6, 1318.8 909.7, 1339.8 894.6 C 1356.4 882.7, 1356.3 882.8, 1358.5 884.4 C 1360.4 885.8, 1361.7 898.2, 1363.5 933 L 1364.2 945.5 1370.7 945.5 L 1377.3 945.5 1376.6 935.5 C 1376.3 930, 1375.1 915.6, 1374 903.5 C 1371.1 870.6, 1370.7 873.3, 1378.8 866.7 C 1390.9 856.8, 1399.3 844.7, 1406.1 827.7 C 1409.3 819.9, 1414 802.9, 1414 799.5 C 1414 789.8, 1434.1 775.7, 1450.3 774 C 1454.3 773.6, 1459.6 772.6, 1462.2 771.9 C 1469.5 769.9, 1470.9 771, 1477.5 784.7 C 1480.6 791.2, 1484.9 800.3, 1487 805 C 1489.1 809.7, 1493.5 819.1, 1496.8 826 C 1502.5 838, 1506.6 846.7, 1512.5 859.5 C 1522.3 880.6, 1527 890, 1527.6 890 C 1528.3 890, 1537 887, 1537.8 886.5 C 1538.3 886.1, 1528.9 866, 1517.5 843 C 1514.4 836.7, 1508.8 824.8, 1505 816.5 C 1501.3 808.2, 1495 795, 1491.2 787 C 1482.3 768.5, 1482.4 768.9, 1485.5 765.2 C 1490.5 759.2, 1488.1 755.5, 1479.8 756.5 C 1476.8 756.8, 1464.3 756.2, 1451 755 C 1438.1 753.8, 1422.1 752.5, 1415.5 752 C 1400.4 750.9, 1360.3 746.4, 1348.7 744.5 C 1338.9 743, 1330.6 743.7, 1326.3 746.5 C 1325 747.4, 1319.3 752.3, 1313.7 757.3 C 1304.6 765.5, 1286 781.3, 1277.4 788 C 1275.7 789.4, 1266.5 796.8, 1256.9 804.5 C 1247.3 812.2, 1233 822.9, 1225 828.2 C 1210.8 837.6, 1171.1 859.9, 1160.1 864.7 C 1157 866, 1152.7 867.9, 1150.5 869 C 1122.4 882.4, 1067 901.2, 1047.3 904 C 1043.9 904.4, 1040.7 905.1, 1040.2 905.4 C 1039 906.1, 1017.9 910.1, 1010 911 C 952.5 917.9, 897.6 916.8, 845 907.5 C 832.8 905.4, 824.4 903.6, 806.5 899.4 C 803.2 898.6, 798.2 897.5, 795.5 897 C 788 895.4, 765.7 888.6, 755 884.5 C 749.8 882.5, 741.5 879.3, 736.5 877.5 C 686.3 858.9, 627.5 822.4, 579.5 780 C 570.7 772.3, 561.2 764.4, 558.5 762.6 C 553.7 759.4, 537.2 753.2, 518.5 747.5 C 513.5 746, 505.4 743.5, 500.5 741.9 C 483.3 736.6, 450.9 727.8, 441.5 726 C 439.3 725.6, 432.8 724.1, 427 722.7 C 385 712.5, 340.7 707.9, 295 709.1 M 165.4 766.1 C 165.1 766.7, 163.5 767.9, 162 768.9 L 159.2 770.6 167.8 782.7 C 172.6 789.4, 179.1 798.4, 182.2 802.7 C 185.4 807, 193.7 818.4, 200.7 828.2 C 226.4 863.6, 239.2 881, 239.7 881 C 239.9 881, 242.2 879.6, 244.6 877.8 L 249 874.7 246.7 871.6 C 245.4 869.9, 239.7 862, 234 854 C 228.2 846, 219.1 833.4, 213.5 825.9 C 208 818.5, 201.9 810.1, 200 807.4 C 172.4 767.9, 167.7 762.4, 165.4 766.1 M 1626.7 774.7 C 1625.4 776.8, 1623.1 780.8, 1621.5 783.5 C 1619.9 786.2, 1616.1 792.8, 1613 798 C 1609.9 803.2, 1605.6 810.6, 1603.5 814.5 C 1601.5 818.4, 1598.5 823.5, 1597 826 C 1578 857.3, 1560.9 888, 1562.5 888 C 1563.2 888, 1565.4 889.2, 1567.5 890.6 C 1570.5 892.6, 1571.5 892.9, 1572.2 891.8 C 1572.7 891.1, 1576.3 884.9, 1580.2 878 C 1584.1 871.1, 1589 862.8, 1591 859.5 C 1593 856.2, 1598.2 847.2, 1602.5 839.5 C 1606.8 831.8, 1614.9 817.9, 1620.5 808.5 C 1638.4 778.4, 1639.5 776.3, 1636.8 775.4 C 1635.5 775.1, 1633.3 773.9, 1631.8 772.8 L 1629.1 770.9 1626.7 774.7 M 163.3 886.2 C 162.7 888.6, 162 891.2, 161.6 892.1 C 161 893.4, 161.9 893.8, 166.7 894.4 C 173.5 895.1, 181.3 896.6, 189 898.5 C 192 899.3, 195.8 900.1, 197.5 900.4 C 199.2 900.7, 205.8 902.1, 212.4 903.5 C 229.1 907, 228.7 907.1, 229.3 898.5 C 229.5 895.7, 229.3 895.5, 224 894.3 C 216.6 892.8, 196.3 888.5, 181 885.4 C 174.1 884, 167.6 882.6, 166.4 882.4 C 164.7 882, 164.2 882.6, 163.3 886.2 M 400.5 893.1 C 369.6 895.7, 344.1 897.9, 333.5 899 C 328.6 899.5, 320.6 900.2, 315.8 900.5 L 307.1 901.2 307.7 906.3 C 308 909.2, 308.4 911.7, 308.6 911.8 C 308.7 912, 319.8 911.2, 333.2 910 C 346.6 908.9, 367.9 907, 380.5 906 C 393.1 904.9, 407.1 903.6, 411.4 903 C 415.8 902.5, 421.4 902, 423.9 902 L 428.5 902 428.2 896.5 C 427.8 891.3, 427.7 891, 425.2 891.1 C 423.7 891.2, 412.6 892.1, 400.5 893.1 M 1267.4 893.4 C 1266.2 894.3, 1263.5 899.5, 1261.1 905.7 C 1258.8 911.6, 1256 918.1, 1255 920.1 C 1252 925.6, 1236.4 968.8, 1224.4 1004.5 C 1221.5 1013.3, 1216.6 1027.7, 1213.6 1036.4 L 1208 1052.4 1213.7 1054.2 C 1216.9 1055.1, 1219.5 1055.8, 1219.6 1055.7 C 1219.9 1055.5, 1235.3 1010.4, 1241.5 991.5 C 1243.9 984.4, 1252 960.7, 1259.5 939 C 1275.1 894, 1274.6 895.5, 1273 893.5 C 1271.4 891.6, 1270 891.6, 1267.4 893.4 M 500.1 915.1 C 498.4 918, 497.1 920.4, 497.2 920.5 C 497.4 920.6, 507.2 927.6, 519 936 C 530.8 944.4, 546.8 955.9, 554.5 961.5 C 562.2 967, 577.9 978.3, 589.4 986.5 C 600.9 994.8, 618.2 1007.2, 627.8 1014.1 L 645.4 1026.7 647.8 1023.1 C 649.1 1021.1, 650.6 1019, 651.1 1018.4 C 651.7 1017.7, 648.2 1014.6, 640.7 1009.3 C 627.6 999.9, 608.8 986.4, 589.9 972.8 C 582.5 967.5, 568.2 957.2, 558 950 C 542.5 939, 524.3 925.8, 506.9 912.8 L 503.3 910 500.1 915.1 M 303 928.9 C 303 930.9, 295 939.8, 290.6 942.7 L 286 945.8 289.8 950.6 C 291.8 953.3, 296.9 960.2, 301 966 C 305.1 971.8, 315 985.3, 323.1 996 C 336.3 1013.7, 354.4 1038.4, 365.9 1054.4 C 368.4 1057.7, 377.9 1070.6, 387 1083 C 396.1 1095.4, 406.5 1109.5, 410.1 1114.4 C 421.8 1130.5, 442.2 1158.4, 447.8 1165.8 L 453.3 1173.1 457.1 1169.4 C 462 1164.6, 463.6 1167.8, 439 1134.5 C 432.1 1125.2, 422 1111.4, 416.7 1104 C 411.4 1096.6, 405.1 1088, 402.7 1084.9 C 400.4 1081.8, 394.9 1074.4, 390.5 1068.4 C 386.2 1062.4, 378.8 1052.3, 374.1 1046 C 369.5 1039.7, 362.3 1029.8, 358.2 1024 C 354 1018.2, 344.7 1005.6, 337.5 996 C 330.3 986.4, 321.1 973.8, 317 968 C 312.9 962.2, 307.4 954.6, 304.8 951.1 C 300.3 945.1, 298.8 941, 301 941 C 302 941, 358.7 979.4, 391 1002 C 400.6 1008.7, 417.5 1020.2, 428.5 1027.5 C 439.5 1034.9, 453.2 1044.3, 459 1048.4 C 482.3 1065, 491 1070.8, 491 1069.7 C 491 1069, 492.1 1066.8, 493.5 1064.7 L 496.1 1061 491.8 1058 C 489.4 1056.4, 478.7 1049.1, 468 1041.7 C 457.3 1034.4, 440.2 1022.6, 430 1015.4 C 419.8 1008.2, 402.5 996.3, 391.5 988.9 C 380.5 981.4, 365 970.6, 357 964.9 C 349 959.1, 338.2 951.5, 333 948 C 327.8 944.5, 319.2 938.5, 313.9 934.8 C 304.1 927.9, 303 927.3, 303 928.9 M 1502.5 931.5 C 1498.7 932.8, 1488.5 935.7, 1480 938 C 1471.5 940.3, 1460.7 943.3, 1456 944.7 C 1451.3 946.1, 1442.8 948.5, 1437 950 C 1410 957.1, 1398.4 960.2, 1397.1 960.6 C 1396.2 960.9, 1396 961.8, 1396.4 963.3 C 1396.8 964.5, 1397.4 967.2, 1397.7 969.3 C 1398.2 972.3, 1398.6 973, 1399.9 972.4 C 1400.8 972.1, 1404.8 970.9, 1408.8 969.9 C 1412.8 968.9, 1420.5 966.7, 1425.8 965.1 C 1441.4 960.3, 1459 955.2, 1465.5 953.6 C 1474.4 951.4, 1495.3 945.5, 1505.1 942.4 L 1513.7 939.7 1512.1 934.4 C 1511.2 931.4, 1510.3 929.1, 1510 929.1 C 1509.7 929.2, 1506.3 930.3, 1502.5 931.5 M 480.5 931.6 C 478.9 932.3, 476.5 932.9, 475.2 933 C 473.3 933, 473.1 933.4, 473.6 935.8 C 475.8 944.7, 483.3 973.9, 485.5 981.5 C 486.9 986.5, 488.9 994.3, 490 999 C 492.1 1008.2, 502.6 1050.1, 503.5 1053 C 504 1054.7, 504.4 1054.7, 509.3 1053.2 C 512.2 1052.3, 514.6 1051.5, 514.8 1051.4 C 515 1051.3, 514.4 1048.6, 513.6 1045.3 C 512.7 1042.1, 510 1031.2, 507.5 1021 C 505.1 1010.8, 500.6 993, 497.5 981.5 C 494.5 970, 491.3 957.4, 490.5 953.5 C 488.4 943.9, 484.9 931.6, 484.2 930.9 C 483.8 930.5, 482.1 930.9, 480.5 931.6 M 253.6 949.7 C 253.3 950.7, 251.7 959.6, 250 969.5 C 248.3 979.4, 245.6 993.8, 244 1001.5 C 241 1016.1, 235 1048.8, 235 1050.7 C 235 1051.2, 236.9 1052, 239.3 1052.3 C 241.7 1052.6, 244.3 1053.2, 245.1 1053.5 C 246.7 1054.1, 246.8 1053.8, 256 1002.5 C 258.2 990.4, 261.3 973.8, 263 965.6 C 264.6 957.4, 266 950.6, 266 950.5 C 266 950.3, 264.3 949.9, 262.2 949.5 C 260.2 949.2, 257.5 948.6, 256.3 948.3 C 254.8 948, 254 948.4, 253.6 949.7 M 1511.4 960.8 C 1506.4 967.3, 1493.7 984, 1483 998 C 1472.3 1012, 1457.8 1031.1, 1450.7 1040.3 C 1443.6 1049.6, 1438 1057.3, 1438.2 1057.4 C 1438.3 1057.5, 1440.4 1058.8, 1442.7 1060.3 L 1446.9 1063 1462.2 1043.3 C 1470.6 1032.5, 1483.6 1015.7, 1491 1006 C 1498.4 996.3, 1509.6 981.8, 1515.8 973.9 C 1530.5 955.1, 1529.8 956.9, 1524.7 952.7 L 1520.4 949.2 1511.4 960.8 M 1538.5 966.9 C 1537.5 970.5, 1534.8 980.7, 1532.4 989.5 C 1530.1 998.3, 1524.5 1019.7, 1520 1037 C 1515.5 1054.3, 1510.8 1072.3, 1509.5 1077 C 1508.2 1081.7, 1504.2 1097, 1500.5 1111 C 1496.9 1125, 1492.2 1142.8, 1490.1 1150.5 C 1488 1158.2, 1482.8 1178.3, 1478.5 1195.1 L 1470.8 1225.7 1475.6 1230.3 C 1479.4 1233.9, 1480.6 1234.5, 1480.8 1233.2 C 1481 1232.3, 1482.6 1225.9, 1484.5 1219 C 1486.4 1212.1, 1491.3 1193, 1495.5 1176.5 C 1502.4 1149.4, 1513.5 1107.2, 1522.5 1074 C 1526.1 1060.5, 1547.1 981.2, 1550.2 969.1 C 1551.2 965.1, 1552 961.7, 1551.8 961.5 C 1551.6 961.4, 1548.9 961, 1545.8 960.8 L 1540.1 960.3 1538.5 966.9 M 1334.9 994 C 1328.6 998.4, 1319.7 1004.6, 1315 1007.9 C 1298.6 1019.4, 1289.8 1025.6, 1278.2 1034 C 1271.8 1038.7, 1262 1045.6, 1256.6 1049.4 C 1251.1 1053.2, 1243.8 1058.5, 1240.4 1061.2 L 1234.1 1066.1 1237.3 1070.9 L 1240.5 1075.6 1252.5 1066.8 C 1259.1 1061.9, 1269 1054.8, 1274.5 1050.9 C 1303.7 1030.4, 1336.5 1007, 1353.9 994.3 C 1354.4 994, 1347.8 986.2, 1346.9 986.1 C 1346.6 986, 1341.2 989.6, 1334.9 994 M 1383 997 C 1381.1 998.1, 1378.7 998.9, 1377.8 999 C 1375.5 999, 1375.1 997.9, 1382.5 1013.9 C 1386.1 1021.6, 1389 1028.1, 1389 1028.4 C 1389 1029.1, 1402 1058.3, 1402.6 1058.9 C 1403 1059.3, 1410.9 1056.1, 1412.3 1055 C 1413.4 1054.1, 1389.7 998.3, 1387.2 995.8 C 1386.8 995.5, 1384.9 996, 1383 997 M 1019.7 1041.3 C 1019.4 1043.7, 1018.8 1046.3, 1018.5 1047.1 C 1018.1 1048.3, 1019.3 1049.1, 1023.7 1050.3 C 1026.9 1051.3, 1036.5 1054.1, 1045 1056.6 C 1053.5 1059.2, 1062.8 1061.8, 1065.5 1062.6 C 1068.2 1063.3, 1079.5 1066.6, 1090.5 1070 C 1101.5 1073.5, 1112.8 1076.8, 1115.7 1077.5 C 1118.5 1078.2, 1123.7 1079.7, 1127.2 1080.8 C 1138 1084.1, 1145.3 1086.2, 1150.6 1087.5 L 1155.7 1088.7 1157.2 1083.8 C 1158 1081.1, 1158.4 1078.8, 1158.1 1078.6 C 1157.8 1078.4, 1151 1076.4, 1143 1074 C 1135 1071.7, 1125.3 1068.8, 1121.5 1067.5 C 1117.7 1066.2, 1109.8 1063.8, 1104 1062.2 C 1098.2 1060.5, 1087.9 1057.5, 1081 1055.5 C 1074.1 1053.4, 1065.8 1050.9, 1062.5 1050 C 1059.2 1049, 1051.8 1046.8, 1046 1045 C 1040.2 1043.2, 1032.4 1040.9, 1028.7 1039.9 C 1025 1038.9, 1021.6 1037.8, 1021.1 1037.6 C 1020.6 1037.3, 1020 1039, 1019.7 1041.3 M 641.5 1039.8 C 640.4 1040, 637.5 1040.8, 635 1041.6 C 629 1043.7, 599 1051.9, 591.9 1053.5 C 588.8 1054.2, 584 1055.5, 581.4 1056.3 C 578.7 1057.2, 572 1059.1, 566.5 1060.5 C 561 1061.8, 553.1 1064, 549 1065.2 L 541.4 1067.5 542.9 1072.5 C 543.7 1075.3, 544.4 1077.6, 544.5 1077.7 C 544.6 1077.9, 548 1077.1, 552.1 1076 C 569.3 1071.3, 582.1 1067.8, 592 1065 C 602.7 1062, 634.2 1053.6, 641.5 1051.8 C 647 1050.5, 647.2 1050.1, 645.3 1044.4 C 643.8 1040.4, 643.1 1039.5, 641.5 1039.8 M 969.3 1060.8 C 964.4 1066.8, 951.4 1083.1, 940.2 1097.4 L 933.9 1105.4 937.7 1108.7 C 939.8 1110.5, 941.8 1111.9, 942.1 1112 C 942.5 1112, 947.7 1106.1, 953.6 1098.8 C 959.6 1091.6, 968 1081.4, 972.3 1076.2 C 980.5 1066.3, 983.5 1062.1, 982.9 1061.7 C 982.7 1061.6, 980.6 1060, 978.3 1058.2 L 974.1 1055 969.3 1060.8 M 685 1058.5 C 683.1 1059.9, 681 1061, 680.3 1061 C 678.1 1061, 678.8 1063, 685.6 1077.5 C 689.2 1085.2, 694.1 1095.8, 696.5 1101 C 698.8 1106.2, 702.8 1114.8, 705.3 1120 C 707.7 1125.2, 711 1132.2, 712.5 1135.5 C 714 1138.8, 715.4 1141.7, 715.6 1141.9 C 716 1142.3, 726 1139, 726 1138.4 C 726 1137.5, 714.2 1110.5, 710.7 1103.5 C 705.5 1092.9, 700.8 1082.8, 695 1069.5 C 688.5 1054.8, 689.1 1055.5, 685 1058.5 M 541.2 1090.9 C 540.1 1093.4, 539.4 1095.8, 539.8 1096.2 C 540.2 1096.6, 547 1099.4, 555 1102.5 C 563 1105.6, 574.5 1110.1, 580.5 1112.5 C 586.5 1114.8, 594 1117.9, 597 1119.2 C 600 1120.6, 610.1 1124.7, 619.5 1128.4 C 628.9 1132.1, 639.6 1136.4, 643.5 1138 C 647.4 1139.6, 655.7 1142.9, 662.1 1145.4 C 668.4 1147.8, 676 1151, 678.8 1152.4 C 681.6 1153.8, 687.4 1156.1, 691.6 1157.5 C 695.9 1158.9, 699.9 1160.5, 700.6 1161.1 C 701.7 1162, 702.1 1161.8, 702.6 1160.4 C 703 1159.3, 703.9 1157, 704.7 1155.1 C 705.4 1153.2, 705.9 1151.6, 705.8 1151.5 C 705.6 1151.3, 700.1 1149.1, 693.5 1146.5 C 686.9 1144, 676.3 1139.7, 670 1137 C 655 1130.6, 623.4 1117.8, 609.5 1112.5 C 603.5 1110.1, 595.8 1107, 592.5 1105.5 C 585 1102.2, 555.2 1090.3, 548.4 1088 L 543.4 1086.2 541.2 1090.9 M 1308.8 1089.8 L 1246 1090 1246 1095.5 L 1246 1101 1249.2 1101 C 1269.5 1101.1, 1385.4 1100.9, 1385.6 1100.7 C 1385.7 1100.6, 1385.6 1098.2, 1385.3 1095.3 L 1384.8 1090.2 1378.1 1089.8 C 1374.5 1089.6, 1343.3 1089.6, 1308.8 1089.8 M 1147 1099.1 C 1145.1 1099.5, 1138.1 1100.6, 1131.5 1101.5 C 1124.9 1102.5, 1116.3 1103.8, 1112.5 1104.5 C 1108.7 1105.3, 1100.5 1106.6, 1094.5 1107.5 C 1088.5 1108.4, 1081.9 1109.6, 1080 1110.1 C 1078.1 1110.5, 1073.3 1111.4, 1069.5 1112 C 1065.7 1112.6, 1058.2 1113.7, 1053 1114.6 C 1047.8 1115.4, 1041.7 1116.3, 1039.5 1116.6 C 1037.3 1116.9, 1031.9 1117.7, 1027.5 1118.5 C 1023.1 1119.3, 1016.1 1120.4, 1012 1121 C 1007.9 1121.7, 1000.9 1122.9, 996.5 1123.7 C 992.1 1124.6, 986.2 1125.6, 983.5 1126 C 980.8 1126.4, 974.9 1127.3, 970.5 1127.9 C 956.2 1130, 953.3 1131.1, 954.1 1134 C 954.5 1135.4, 954.8 1138, 954.9 1139.8 C 955 1141.6, 955.4 1142.9, 955.9 1142.6 C 956.4 1142.3, 961 1141.4, 966.1 1140.6 C 971.3 1139.8, 982 1138, 990 1136.6 C 998 1135.2, 1007.6 1133.6, 1011.5 1133 C 1021.5 1131.4, 1043.5 1127.7, 1061.2 1124.5 C 1078.1 1121.6, 1087.8 1120, 1098 1118.5 C 1103.8 1117.6, 1111 1116.5, 1114 1116 C 1117 1115.5, 1123.8 1114.4, 1129 1113.5 C 1134.2 1112.7, 1142.6 1111.2, 1147.5 1110.4 L 1156.5 1108.7 1155.6 1103.4 C 1154.5 1097.5, 1154.2 1097.4, 1147 1099.1 M 495.5 1120.7 C 486 1150.3, 483.7 1157.4, 483.3 1158.7 C 483 1159.3, 484.6 1160.2, 487.2 1160.8 C 489.6 1161.3, 492.2 1162.1, 493.1 1162.4 C 494.3 1162.9, 494.9 1162.1, 495.9 1158.8 C 496.6 1156.4, 500.5 1144, 504.6 1131.1 C 508.8 1118.3, 511.8 1107.4, 511.3 1107 C 510.9 1106.6, 509.1 1105.8, 507.5 1105.2 C 505.9 1104.7, 503.8 1103.9, 502.9 1103.5 C 501.5 1103, 500.3 1105.8, 495.5 1120.7 M 1386.4 1125.7 C 1382.1 1130.5, 1370.4 1143.1, 1360.5 1153.6 C 1350.6 1164.1, 1337.2 1178.4, 1330.7 1185.4 L 1318.8 1198 1323.1 1202.2 L 1327.3 1206.3 1330.3 1202.9 C 1333.3 1199.4, 1355.9 1175.1, 1386.3 1142.7 C 1395.6 1132.8, 1402.8 1124.4, 1402.3 1124.1 C 1401.9 1123.8, 1399.9 1122, 1397.9 1120.2 L 1394.3 1116.9 1386.4 1125.7 M 1161.8 1137.3 C 1150.6 1151.8, 1123.9 1185.2, 1114 1197 C 1101.3 1212.1, 1081 1237.9, 1081.1 1238.8 C 1081.1 1239.2, 1082.9 1241, 1085 1242.8 L 1088.8 1246.1 1098.1 1234.8 C 1103.3 1228.6, 1111.7 1218.1, 1116.9 1211.5 C 1122.1 1204.9, 1130.7 1194.3, 1136 1188 C 1144.7 1177.6, 1157.1 1162.2, 1171.8 1143.5 C 1174.6 1139.8, 1177 1136.5, 1177 1136.1 C 1177 1135.7, 1175 1134, 1172.6 1132.3 L 1168.1 1129.1 1161.8 1137.3 M 1423.9 1129.7 L 1418.4 1130.1 1420.6 1143.8 C 1423.2 1159.5, 1433.4 1212.2, 1436 1222.6 C 1436 1222.6, 1438.6 1222, 1441.8 1221.1 L 1447.7 1219.6 1446.3 1212.1 C 1443.5 1196.5, 1439.8 1177.1, 1437.5 1166 C 1436.1 1159.7, 1434.3 1150.2, 1433.5 1145 C 1432.6 1139.8, 1431.6 1134, 1431.3 1132.2 C 1431 1130.5, 1430.5 1129.1, 1430.1 1129.2 C 1429.8 1129.3, 1427 1129.5, 1423.9 1129.7 M 866.5 1143.5 C 865.5 1143.9, 861.7 1144.5, 828 1149.6 C 807.9 1152.7, 799.8 1153.8, 790 1155 C 785.9 1155.4, 778 1156.6, 772.5 1157.5 C 767 1158.4, 761.1 1159.2, 759.5 1159.2 L 756.5 1159.4 756.5 1166.1 C 756.5 1170.5, 756.9 1172.5, 757.5 1172 C 758.6 1171.1, 766 1169.7, 779 1168 C 783.7 1167.4, 791.5 1166.3, 796.5 1165.5 C 801.5 1164.8, 809.1 1163.6, 813.5 1163 C 817.9 1162.4, 825.3 1161.3, 830 1160.5 C 834.7 1159.8, 841.6 1158.7, 845.5 1158.1 C 849.4 1157.6, 855.8 1156.7, 859.8 1156.1 C 863.8 1155.5, 868.1 1155, 869.4 1155 C 871.7 1155, 871.8 1154.8, 870.9 1151.8 C 870.4 1150, 870 1147.3, 870 1145.8 C 870 1143.2, 869 1142.6, 866.5 1143.5 M 946.3 1168.6 L 943 1173 948.3 1177.1 C 954.5 1182, 961.6 1187.7, 977 1200.2 C 986.8 1208.2, 1036.7 1248.2, 1040.9 1251.4 C 1042 1252.2, 1042.4 1252.2, 1042.8 1251.2 C 1043 1250.4, 1044.5 1248.4, 1046 1246.6 L 1048.9 1243.4 1031.2 1228.9 C 1021.5 1221, 1004.5 1207.4, 993.5 1198.7 C 982.5 1190.1, 968.8 1179.1, 963 1174.4 C 949.1 1163.1, 950.1 1163.5, 946.3 1168.6 M 682.5 1168 C 655.4 1170.7, 644.6 1171.9, 632.5 1173.6 C 621.1 1175.1, 613.1 1176, 587 1178.5 C 578.5 1179.3, 564.3 1180.9, 555.5 1181.9 C 546.7 1183, 534 1184.4, 527.2 1185.1 L 515 1186.3 515.6 1191.4 C 516 1194.2, 516.3 1196.6, 516.4 1196.6 C 516.6 1196.9, 547.6 1194, 560.5 1192.6 C 567.6 1191.8, 580 1190.4, 588 1189.6 C 596 1188.7, 606.5 1187.5, 611.5 1187 C 616.5 1186.4, 626.8 1185.3, 634.5 1184.5 C 642.2 1183.7, 655 1182.4, 663 1181.5 C 671 1180.6, 683.4 1179.3, 690.5 1178.7 C 702.6 1177.6, 703.5 1177.4, 703.2 1175.5 C 702.3 1168.7, 701.7 1166, 701.1 1166.1 C 700.8 1166.2, 692.4 1167, 682.5 1168 M 871.3 1170.4 C 868.5 1172.6, 860.2 1179.9, 852.9 1186.5 C 845.5 1193.2, 831.6 1205.1, 822 1213.2 C 812.4 1221.2, 801.4 1230.6, 797.5 1234.1 C 793.6 1237.7, 786.6 1243.8, 781.7 1247.9 L 773 1255.2 775.9 1258.5 C 777.5 1260.3, 779 1262.4, 779.2 1263.1 C 779.7 1264.6, 778.7 1265.4, 802.4 1245 C 811 1237.6, 820.8 1229.2, 824 1226.5 C 846.1 1207.7, 876.1 1181.9, 879.7 1178.5 L 883.9 1174.5 880.2 1170.4 L 876.4 1166.2 871.3 1170.4 M 926.5 1183.4 C 923.8 1184.5, 921.3 1185.5, 921.1 1185.7 C 920.9 1185.8, 921.4 1187.9, 922.3 1190.2 C 923.2 1192.6, 924.4 1196.5, 925 1199 C 925.6 1201.5, 928.1 1210, 930.5 1218 C 932.9 1226, 936.3 1237.5, 938.1 1243.5 C 939.8 1249.5, 942.9 1260.1, 945 1267 C 947.1 1273.9, 949.8 1282.8, 951 1286.8 C 952.5 1292.1, 953.5 1294, 954.5 1293.6 C 955.3 1293.3, 957.8 1292.6, 960 1292 C 963.6 1291, 964.1 1290.5, 963.7 1288.7 C 962.5 1283.2, 955.5 1259, 950 1241.5 C 948.3 1236, 946 1228.3, 945 1224.5 C 943.5 1218.6, 933.2 1185.7, 931.9 1182.4 C 931.7 1181.8, 929.7 1182.1, 926.5 1183.4 M 737.9 1192.5 L 732.4 1194.5 733.6 1200 C 734.3 1203, 736.3 1212, 738 1220 C 739.7 1228, 741.8 1237.5, 742.7 1241.2 L 744.2 1248 749.9 1247.4 C 753 1247, 755.6 1246.6, 755.8 1246.5 C 756.1 1246.2, 750 1217.9, 746.1 1201.5 L 743.5 1190.5 737.9 1192.5 M 515 1202.8 C 515 1206.2, 511.3 1213.6, 507.6 1217.7 L 504.1 1221.6 511.7 1227.1 C 515.9 1230.1, 524.5 1236.3, 530.8 1240.8 C 537.1 1245.4, 544.8 1250.8, 547.9 1252.8 C 551 1254.9, 558 1259.9, 563.5 1264 C 573.2 1271.3, 594.9 1286.7, 602 1291.3 C 605.5 1293.6, 606.9 1296.5, 605.3 1298.1 C 604.4 1299, 580.4 1304.1, 568.5 1306 C 565.2 1306.5, 557.1 1308.1, 550.5 1309.5 C 536.2 1312.6, 526 1314.6, 516.5 1316.1 C 512.6 1316.7, 507.4 1317.8, 504.8 1318.6 C 502.2 1319.4, 499.4 1320, 498.6 1320 C 497.7 1320, 497 1320.3, 497.1 1320.8 C 497.2 1322.8, 499.8 1333.3, 499.9 1332.3 C 500 1330.8, 501.8 1330.3, 511.7 1328.5 C 525 1326.2, 535.9 1324.1, 541.8 1322.6 C 544.9 1321.9, 552 1320.5, 557.5 1319.5 C 563 1318.6, 571.1 1317, 575.5 1316 C 579.9 1315, 589.1 1313.2, 596 1312 C 602.9 1310.8, 610.7 1309.5, 613.3 1308.9 C 624.2 1306.8, 622.9 1306.2, 648.7 1324.9 C 668.5 1339.3, 709 1368.3, 741 1391.2 C 783.7 1421.7, 784 1421.9, 784.6 1424.9 C 784.9 1426.3, 785.7 1429.1, 786.2 1431 L 787.3 1434.5 789.2 1430 C 790.3 1427.6, 792.2 1424.1, 793.5 1422.4 C 797.5 1417.1, 799.4 1419.1, 772 1399.8 C 767.9 1396.9, 754.9 1387.6, 743.2 1379 C 723.7 1364.9, 712.4 1356.7, 680.6 1334.2 C 663.4 1322, 648.8 1311.4, 645.5 1308.6 C 639.7 1303.8, 641.9 1302.8, 671.5 1297.6 C 681.6 1295.8, 691.5 1293.9, 713.5 1289.6 C 725 1287.3, 725.5 1287.1, 725.2 1284.9 C 725.1 1283.6, 724.7 1280.2, 724.4 1277.3 C 724 1273.8, 724.3 1270.6, 725.4 1267.4 C 726.3 1264.8, 727 1262.5, 727 1262.4 C 727 1262.3, 723.3 1261.2, 718.8 1260 C 714.2 1258.8, 704 1255.9, 696 1253.5 C 688 1251.1, 676.8 1247.8, 671 1246.2 C 665.2 1244.5, 650.5 1240.2, 638.3 1236.6 C 618 1230.5, 609.7 1228.1, 582.5 1220.4 C 577.5 1219, 566.5 1215.9, 558 1213.4 C 536.7 1207.1, 533.5 1206.2, 525.5 1204.1 C 521.6 1203.1, 517.7 1202, 516.8 1201.5 C 515.4 1201, 515 1201.3, 515 1202.8 M 516 1215.3 C 516 1217.2, 517.8 1218.6, 530.5 1227.2 C 536.5 1231.3, 546.7 1238.4, 553 1243.1 C 562.8 1250.4, 587.6 1267.9, 617.7 1288.9 C 627.4 1295.6, 627.7 1295.6, 672 1286 C 680.8 1284.1, 689.1 1282.5, 709.5 1278.9 C 716.1 1277.7, 721.9 1276.4, 722.4 1275.9 C 724.2 1274.2, 719.8 1271.1, 714.1 1270 C 711 1269.4, 705.8 1268.1, 702.5 1267.1 C 699.2 1266.1, 692.2 1264, 687 1262.5 C 681.8 1261, 674.8 1258.9, 671.5 1257.9 C 668.2 1256.9, 660.8 1254.7, 655 1253 C 649.2 1251.3, 641.6 1249, 638 1248 C 634.4 1246.9, 626.5 1244.7, 620.5 1243 C 614.5 1241.3, 605.5 1238.8, 600.5 1237.4 C 595.5 1236, 590.6 1234.6, 589.5 1234.3 C 588.4 1234.1, 581.2 1231.9, 573.5 1229.5 C 565.8 1227.1, 555.2 1223.9, 550 1222.5 C 544.8 1221, 536.3 1218.5, 531.2 1216.9 C 521.1 1213.7, 516 1213.2, 516 1215.3 M 1269.5 1220.5 C 1266.2 1221.3, 1258.3 1222.8, 1252 1224 C 1236.5 1226.9, 1226.3 1228.8, 1215 1231 C 1209.8 1232.1, 1196.7 1234.5, 1186 1236.5 C 1175.3 1238.4, 1163.1 1240.7, 1159 1241.5 C 1154.9 1242.3, 1147.5 1243.7, 1142.5 1244.6 C 1125 1247.7, 1098.2 1252.9, 1095.7 1253.6 C 1094.2 1254.1, 1094 1254.9, 1094.6 1259.3 C 1095.4 1265.9, 1094.7 1265.5, 1103.2 1263.6 C 1107.2 1262.8, 1114.5 1261.4, 1119.5 1260.5 C 1124.5 1259.7, 1133.2 1258, 1139 1256.9 C 1144.8 1255.8, 1152.7 1254.2, 1156.5 1253.4 C 1163.7 1252, 1186.5 1247.9, 1198 1245.9 C 1201.6 1245.3, 1207.4 1244.2, 1211 1243.5 C 1214.6 1242.7, 1220.2 1241.6, 1223.5 1241.1 C 1233.9 1239.4, 1246.1 1237.2, 1257.5 1234.9 C 1263.5 1233.8, 1271.7 1232.3, 1275.5 1231.6 C 1283.2 1230.4, 1282.7 1231.1, 1281.3 1222.8 C 1280.6 1218.4, 1279.8 1218.3, 1269.5 1220.5 M 468.6 1234 C 467.8 1240, 465 1275.8, 464.3 1288.6 L 463.8 1298.7 469.1 1299.3 C 472 1299.7, 474.6 1299.7, 474.8 1299.5 C 475.3 1299, 475.7 1294.7, 478.5 1260 C 479.3 1249.3, 480.3 1238.5, 480.6 1236 L 481.1 1231.4 475.1 1230.4 L 469.1 1229.4 468.6 1234 M 1285 1245.8 C 1277.2 1261.5, 1255.7 1306.1, 1252.7 1312.5 C 1251 1316.3, 1245.4 1327.7, 1240.4 1337.7 C 1232.3 1354, 1231.5 1356, 1233.1 1356.5 C 1234.2 1356.9, 1236.4 1358.3, 1238 1359.7 C 1239.7 1361.1, 1241.2 1362.1, 1241.4 1361.9 C 1242.3 1361, 1289.3 1264.9, 1295.6 1251.2 L 1298.9 1244 1295.6 1242.6 C 1293.7 1241.8, 1291.9 1240.7, 1291.6 1240.1 C 1290.1 1237.7, 1288.2 1239.3, 1285 1245.8 M 782 1278 C 782 1279, 781.4 1281.5, 780.6 1283.7 L 779.2 1287.7 784.8 1288.9 C 797.5 1291.7, 824.8 1297.9, 844.5 1302.5 C 854.7 1304.9, 876.1 1309.7, 884.5 1311.6 C 888.9 1312.5, 898.4 1314.8, 905.5 1316.6 C 919.2 1320.1, 933.2 1323.1, 933.5 1322.7 C 934 1322.1, 936.1 1312.7, 935.8 1312.5 C 935.1 1312, 922.7 1309, 915 1307.5 C 910.3 1306.6, 902.2 1304.8, 897 1303.5 C 886 1300.7, 870.5 1297.1, 857 1294 C 851.8 1292.9, 841.9 1290.6, 835 1289 C 828.1 1287.4, 818 1285.2, 812.5 1284 C 807 1282.8, 800.5 1281.2, 798.1 1280.4 C 795.6 1279.6, 792.7 1279, 791.6 1279 C 790.4 1278.9, 787.8 1278.3, 785.8 1277.6 C 782.3 1276.4, 782 1276.4, 782 1278 M 1087.5 1281 C 1085.1 1283.4, 1084 1285.3, 1084.5 1285.8 C 1086.1 1287.2, 1137.4 1327.8, 1154 1340.8 C 1175.8 1357.8, 1188.4 1368, 1189.2 1369.4 C 1189.6 1370, 1190 1370, 1190 1369.5 C 1190 1369, 1191.6 1366.8, 1193.4 1364.8 L 1196.9 1361 1192.2 1357.1 C 1189.6 1354.9, 1179.3 1346.7, 1169.3 1338.8 C 1159.4 1331, 1143.3 1318.2, 1133.7 1310.5 C 1108.2 1290, 1093.8 1278.6, 1092.5 1277.8 C 1091.8 1277.4, 1089.7 1278.7, 1087.5 1281 M 769.5 1298.7 C 768.4 1299.5, 766.1 1300.8, 764.3 1301.6 L 761.1 1303 764.7 1310.7 C 766.6 1315, 770.2 1323.2, 772.5 1329 C 776.8 1339.4, 778.4 1343.2, 789.3 1368.5 C 799.4 1392, 806 1408, 806 1408.9 C 806 1410, 817 1405.8, 817 1404.6 C 817 1404.1, 815.1 1399.4, 812.8 1394.1 C 803.7 1373, 801.8 1368.3, 800 1363.5 C 799.1 1360.8, 796.4 1354.2, 794.1 1349 C 791.8 1343.8, 789 1337.5, 788 1335 C 784.6 1327, 774.9 1304.6, 773.2 1300.8 C 771.6 1297.3, 771.4 1297.2, 769.5 1298.7 M 999.8 1332.6 L 998.3 1338 1001.9 1338.9 C 1003.9 1339.4, 1007.1 1340.1, 1009 1340.5 C 1010.9 1340.9, 1014.8 1341.8, 1017.5 1342.6 C 1020.2 1343.3, 1029.5 1345.6, 1038 1347.6 C 1046.5 1349.6, 1059.8 1353, 1067.5 1355 C 1075.2 1357.1, 1085.5 1359.8, 1090.5 1360.9 C 1101.8 1363.6, 1113.4 1366.6, 1122.5 1369.1 C 1126.3 1370.1, 1136.9 1372.8, 1146 1375 C 1165.5 1379.8, 1180.9 1383.9, 1183.1 1385.1 C 1184.8 1386, 1187.7 1375.3, 1186.2 1373.8 C 1185.7 1373.3, 1179.5 1371.5, 1172.4 1369.9 C 1165.3 1368.2, 1153.7 1365.2, 1146.5 1363.3 C 1139.3 1361.4, 1131 1359.2, 1128 1358.5 C 1119.7 1356.7, 1108.1 1353.7, 1090.5 1349.1 C 1071.3 1344, 1008.6 1328.4, 1004.4 1327.7 C 1001.4 1327.1, 1001.3 1327.2, 999.8 1332.6 M 927.5 1353.7 C 920.9 1359.4, 910.5 1368.5, 904.5 1374 C 898.5 1379.4, 889.2 1387.5, 884 1392.1 C 878.8 1396.6, 870.6 1403.7, 865.9 1407.8 L 857.2 1415.4 860.4 1419.6 C 862.1 1422, 864 1423.9, 864.5 1423.9 C 865 1424, 869.1 1420.7, 873.6 1416.7 C 878 1412.8, 886.3 1405.5, 892 1400.5 C 911.6 1383.4, 947 1351.9, 947 1351.5 C 947 1351.4, 945.3 1349.5, 943.2 1347.3 L 939.5 1343.2 927.5 1353.7"/></svg>
