<svg xmlns="http://www.w3.org/2000/svg" viewBox="0 0 1760 1480" role="img" aria-label="Squash"><title>Squash</title><path fill="#1b2430" fill-rule="evenodd" d="M 904.5 33.1 C 896.5 35.2, 893.7 37.2, 890.5 43.3 C 887.3 49.4, 883.4 51.7, 873.5 53.4 C 867.3 54.4, 843.1 59.9, 837.4 61.5 C 834.6 62.3, 831.5 63, 830.4 63 C 829.4 63, 823.8 64.1, 818 65.5 C 801.3 69.4, 787.3 72.7, 777 75 C 771.8 76.1, 762.8 78.1, 757 79.5 C 751.2 80.8, 741.1 83.1, 734.5 84.5 C 727.9 86, 717.8 88.3, 712 89.6 C 706.2 90.9, 696.3 93.2, 690 94.6 C 683.7 96, 675.1 98, 671 99.1 C 666.9 100.1, 657 102.3, 649 104 C 641 105.7, 631.6 107.8, 628 108.7 C 624.4 109.6, 618.6 110.9, 615 111.6 C 611.4 112.3, 607.2 113.3, 605.7 113.9 C 600.5 115.9, 598.2 115.2, 593.8 110.4 C 578.7 94.2, 552.8 97.7, 543 117.4 C 539.4 124.4, 539.2 129, 542.1 136.2 C 545 143.5, 544.5 144.4, 531.3 156.1 C 524.8 161.8, 508.5 176.8, 495 189.5 C 481.4 202.2, 463.2 219.1, 454.4 227.2 C 445.7 235.3, 435.1 245.3, 431 249.5 C 419.4 261.2, 417.2 262.5, 411.1 261 C 403.8 259.3, 393.8 261, 389.1 264.8 C 380.6 271.6, 378.2 278.2, 380.4 288.2 C 381.4 292.9, 378.5 296.2, 351.4 320.4 C 340.9 329.8, 326.9 342.4, 320.3 348.5 C 313.8 354.6, 302.1 365.1, 294.5 372 C 286.8 378.8, 274 390.6, 266 398 C 258 405.5, 242.1 420.1, 230.5 430.4 C 218.9 440.8, 202.2 456, 193.2 464.4 C 174.3 481.9, 173.3 482.5, 162.9 481.6 L 155.3 481 148.9 485.7 C 141.4 491.3, 133.6 504.9, 133.6 512.5 C 133.6 527.8, 145.1 540.4, 162.5 544 C 177.1 547, 190 541.6, 199 528.5 C 202.5 523.5, 204.7 523, 217.5 524.9 C 220.8 525.4, 226.9 526.4, 231 527 C 241.9 528.7, 257.3 530.8, 267 532.1 C 279.6 533.7, 282.1 535.2, 284.5 542.6 C 286.6 549, 290.3 555, 294.5 559 C 297.5 561.8, 297.7 565.4, 295.1 569.7 C 294 571.4, 290 578.4, 286.2 585.2 C 260.8 630.2, 237.1 659.8, 206 684.9 C 202.4 687.8, 195.3 693.6, 190.1 697.8 C 165.4 717.9, 164.9 718.2, 160.2 717.7 C 157.3 717.4, 154.5 716.1, 151.3 713.6 C 145.9 709.4, 145.1 709.4, 136.6 714.2 C 119.5 724, 115.8 728.1, 115.2 738.6 C 114.4 751, 118.8 757.7, 133.4 766.5 C 144.1 772.9, 145.1 773, 149.6 769.1 C 154.2 765, 156.2 765.9, 162.2 774.9 C 165 779.1, 170.3 786.5, 174 791.5 C 187.1 809.3, 194.8 819.7, 204.3 833 C 209.6 840.4, 219.8 854.5, 227 864.2 C 241.9 884.6, 242.3 885.5, 238.6 891 C 235.4 895.9, 233.3 896.4, 225 894.6 C 221.4 893.8, 212.9 892, 206 890.6 C 159.9 881, 162.4 881.8, 159.9 875.7 C 158.3 871.8, 147.6 859.8, 144.7 858.7 C 140 856.9, 124.1 867.4, 120.9 874.4 C 117.6 881.7, 118.3 889.1, 122.8 893.8 C 128.1 899.5, 129.7 900, 140.9 900 C 150.7 900, 151 899.9, 154.5 896.9 C 158 893.8, 158.3 893.7, 165.3 894.3 C 172.8 895, 179.4 896.1, 189 898.5 C 192 899.3, 195.8 900.1, 197.5 900.4 C 213.2 903.2, 228.2 906.9, 229.9 908.4 C 231 909.4, 232.4 912.5, 233 915.3 C 234.6 922.8, 238.1 928.1, 244.7 933 C 252.4 938.8, 254 940.7, 254 944.1 C 254 947.5, 247.2 986.3, 243.5 1003.9 C 241.5 1013.4, 237 1038.2, 234.4 1053.8 C 233.7 1058, 231.6 1058.8, 227.5 1056.6 C 222.7 1054, 220.8 1054.8, 218.7 1060.5 C 217.7 1063.3, 215.1 1067.8, 213.1 1070.5 C 211 1073.2, 208.8 1077, 208.1 1078.9 C 203.2 1093.7, 215.5 1111.4, 231.8 1112.6 C 238.7 1113.2, 251.9 1107.6, 258.2 1101.5 C 269.2 1090.7, 266 1073, 251.3 1063.9 C 245.8 1060.5, 245.6 1058.8, 249 1040.7 C 250.7 1031.8, 253.8 1014.8, 255.9 1003 C 262.9 964.3, 266.2 947.5, 267.4 945 C 268.7 942.2, 275.9 939.6, 280.1 940.5 C 282.7 941.1, 286.2 945.3, 302.1 967.5 C 306.8 974.1, 316.7 987.6, 324.1 997.5 C 336.4 1013.9, 354.5 1038.5, 365.9 1054.4 C 368.4 1057.7, 377.9 1070.6, 387 1083 C 396.1 1095.4, 406.5 1109.5, 410.1 1114.4 C 419 1126.7, 441.2 1156.9, 448.2 1166.3 C 454.6 1175, 455.4 1178.3, 452 1183.1 C 444.6 1193.4, 449.3 1209.8, 461.9 1217.7 C 470.2 1223.1, 469.7 1218.3, 466.4 1259.5 C 465.6 1270, 464.5 1284.1, 464.1 1290.9 C 463.1 1305.9, 461.7 1308, 452.9 1308 C 448.9 1308, 447.4 1308.5, 445.9 1310.2 C 443.5 1312.9, 439 1325.4, 439 1329.2 C 439 1333.4, 438 1335, 434.4 1336.5 C 431.9 1337.5, 431 1338.5, 431 1340.3 C 431 1342.7, 435.1 1349.8, 437.4 1351.2 C 463 1368.2, 463.6 1368.3, 476.7 1355.5 C 482.1 1350.2, 488.8 1344.7, 491.6 1343.1 C 495.7 1340.7, 497 1339.3, 498.4 1335.6 C 500.3 1330.6, 500.5 1330.5, 511.7 1328.5 C 525 1326.2, 535.9 1324.1, 541.8 1322.6 C 544.9 1321.9, 552 1320.5, 557.5 1319.5 C 563 1318.6, 571.1 1317, 575.5 1316 C 579.9 1315, 589.1 1313.2, 596 1312 C 602.9 1310.8, 610.7 1309.5, 613.3 1308.9 C 624.2 1306.8, 622.9 1306.2, 648.7 1324.9 C 668.5 1339.3, 709 1368.3, 741 1391.2 C 783.8 1421.8, 784 1421.9, 784.6 1424.9 C 785.7 1430.1, 788.1 1435.7, 791.5 1441 C 793.4 1444, 795 1447.2, 795 1448.2 C 795 1449.2, 795.9 1452.8, 797 1456.2 C 798 1459.7, 799.2 1464.6, 799.5 1467.1 C 800 1470.8, 801 1472.7, 804.1 1475.9 L 808.2 1480 830.1 1480 C 847.8 1480, 852 1479.7, 852 1478.7 C 852 1477.9, 852.9 1476.5, 854 1475.5 C 855 1474.6, 856.5 1472.1, 857.1 1470.1 C 857.8 1468.1, 859.3 1464.9, 860.6 1462.9 C 861.8 1460.9, 863.3 1457.5, 863.9 1455.4 C 864.5 1453.3, 866.4 1449.5, 868 1447.1 C 872 1441.3, 871.8 1440.4, 866.5 1437.2 C 858.8 1432.6, 859.2 1428.8, 868.1 1421.3 C 871.3 1418.6, 878.4 1412.5, 884 1407.5 C 889.5 1402.5, 896.5 1396.5, 899.4 1394 C 904.5 1389.6, 915.2 1380.2, 939 1359 L 950.4 1348.8 955 1349.4 C 975.9 1352.1, 979.6 1351.5, 989 1343.8 C 997.1 1337.3, 997.4 1337.2, 1017 1342.5 C 1020 1343.3, 1029.5 1345.6, 1038 1347.6 C 1046.5 1349.6, 1059.8 1353, 1067.5 1355 C 1075.2 1357.1, 1085.5 1359.8, 1090.5 1360.9 C 1101.8 1363.6, 1113.4 1366.6, 1122.5 1369.1 C 1126.3 1370.1, 1136.9 1372.8, 1146 1375 C 1165.8 1379.8, 1180.9 1383.9, 1183.1 1385.1 C 1184 1385.6, 1185.1 1387.5, 1185.4 1389.5 C 1186 1392.4, 1186.9 1393.4, 1190.8 1395.4 C 1193.4 1396.8, 1198 1400.4, 1201 1403.5 C 1208.2 1410.8, 1214.7 1414.4, 1223.8 1416 C 1232.9 1417.5, 1233.7 1417, 1242 1405.8 C 1248.8 1396.6, 1249.8 1393, 1248.2 1385 C 1247.5 1381.9, 1247 1378, 1247 1376.2 C 1247 1374.1, 1246 1371.9, 1243.9 1369.5 C 1241.4 1366.7, 1240.9 1365.4, 1241.5 1363.3 C 1241.8 1361.8, 1251.5 1341.7, 1262.9 1318.6 C 1274.3 1295.4, 1287 1269.4, 1291.1 1260.7 C 1299.9 1241.9, 1300.9 1240.5, 1307.6 1239.6 C 1321.5 1237.7, 1328.4 1227.7, 1325.6 1213.4 C 1324.6 1208.6, 1324 1209.3, 1351 1180.5 C 1411.8 1115.4, 1407 1119.9, 1412.2 1122.1 C 1416.8 1124, 1417.8 1126.4, 1420.5 1143 C 1423.5 1161.4, 1425.2 1170.5, 1431.9 1203 C 1434.7 1216.5, 1436.8 1228.5, 1436.5 1229.7 C 1436.2 1230.9, 1433.9 1233, 1430.6 1234.8 C 1421.8 1239.8, 1416.1 1248.4, 1415.3 1258.1 C 1414.5 1266.2, 1415.8 1268.5, 1426.2 1278 C 1435.8 1286.6, 1440.9 1289.6, 1444.4 1288.5 C 1445.6 1288.1, 1451.6 1287.5, 1457.8 1287.1 L 1469 1286.4 1473.5 1282 C 1479.1 1276.5, 1482 1270.4, 1482 1264.3 C 1482 1261.6, 1482.7 1255.9, 1483.7 1251.4 C 1485.3 1243.4, 1485.3 1243.3, 1483.2 1239.8 C 1480.3 1235.1, 1480.4 1233.4, 1484.4 1218.9 C 1486.3 1212.1, 1491.3 1193, 1495.5 1176.5 C 1502.4 1149.4, 1513.5 1107.3, 1522.5 1074 C 1527.1 1056.9, 1547.8 978.7, 1550.7 967.1 C 1553.8 954.7, 1553.7 954.9, 1562.2 950.8 C 1583.2 940.6, 1588.2 920.9, 1574 904.2 C 1568.8 898, 1568.9 897.2, 1576.1 884.9 C 1579.5 879.2, 1585.3 869.3, 1589 863 C 1592.7 856.7, 1599.7 844.5, 1604.5 836 C 1609.3 827.5, 1617.2 814, 1622 806 C 1626.7 798, 1632.5 788.1, 1634.8 784 C 1640.7 773.2, 1641.9 772.4, 1651.6 771.7 C 1664.6 770.9, 1673.8 765.3, 1678.5 755.5 C 1685.8 740, 1675.4 721.7, 1657.7 718.9 C 1648.3 717.4, 1647.8 716.8, 1642.7 701.8 C 1640.2 694.5, 1637.2 686, 1636.1 683 C 1635 680, 1632.1 671.4, 1629.5 664 C 1627 656.6, 1623.8 647.6, 1622.5 644 C 1621.2 640.4, 1616.1 626, 1611.1 612 C 1606.1 598, 1600.6 582.5, 1598.7 577.5 C 1596.8 572.5, 1593.7 563.8, 1591.7 558 C 1589.7 552.2, 1586.3 542.8, 1584.2 537 C 1580.1 526.2, 1556.8 460.7, 1554.5 453.5 C 1553.7 451.3, 1551.7 445.7, 1550 441 C 1548.3 436.3, 1544.9 426.9, 1542.5 420 C 1540.1 413.1, 1536.3 402.6, 1534 396.5 C 1525.1 373.2, 1517 349.8, 1517 347.6 C 1517 346.8, 1519.2 343.6, 1521.9 340.6 C 1530.8 330.7, 1531.6 319.2, 1523.9 309.4 C 1518 301.8, 1514.9 300.4, 1500.7 298.9 L 1488.8 297.8 1482.1 302.4 C 1474 307.9, 1472.6 308, 1460.5 304.1 C 1430 294.2, 1348.4 267.5, 1343 265.6 C 1339.4 264.3, 1331.1 261.6, 1324.5 259.5 C 1310.3 255, 1310.4 255.1, 1308.5 247.5 C 1307.4 243.4, 1305.5 239.9, 1302.4 236.1 C 1296.7 229.2, 1296.4 230.9, 1307.9 200.1 C 1312.9 186.7, 1317 175.1, 1317 174.3 C 1317 171.8, 1322.6 167, 1325.7 167 C 1335.2 166.9, 1341.8 157.7, 1342 144.2 C 1342.1 132.6, 1332.7 126.3, 1317.6 127.7 C 1310.9 128.3, 1310.4 128.5, 1304.7 133.8 L 1298.7 139.3 1251.6 138.6 C 1225.7 138.3, 1199.1 137.8, 1192.5 137.6 C 1185.9 137.3, 1164.1 136.9, 1144 136.6 C 1097.4 135.8, 1082.2 135.2, 1079.9 133.9 C 1078.8 133.4, 1076.9 130.8, 1075.6 128.1 C 1071.9 120.9, 1064.2 114.4, 1056.3 112 C 1047.4 109.3, 1042.6 109.5, 1032.7 113 C 1028 114.7, 1023.2 116, 1022 116 C 1019.6 116, 937.5 62, 934.8 58.7 C 933.7 57.3, 933 54.7, 933 51.7 C 933 43.8, 929.5 37.3, 923.7 34.4 C 920.1 32.5, 909.6 31.8, 904.5 33.1 M 879.5 63 C 871.2 65.1, 849.2 70.3, 836.5 73.2 C 831.5 74.3, 823.9 76, 819.5 77.1 C 809.3 79.5, 790 83.6, 783.5 84.8 C 780.8 85.4, 770.6 87.6, 761 89.9 C 751.4 92.1, 738.1 95.2, 731.5 96.6 C 719.4 99.3, 705.3 102.5, 690.5 106 C 686.1 107, 676.9 109.1, 670 110.6 C 663.1 112, 653.5 114.3, 648.5 115.5 C 643.5 116.8, 633.4 119, 626 120.5 C 605.1 124.6, 604.5 127.1, 624.1 129.5 C 630.9 130.4, 640.5 131.7, 645.5 132.6 C 659.1 134.9, 665 135.7, 682 138 C 690.5 139.2, 710.1 141.9, 725.5 144.1 C 740.9 146.3, 758.9 148.7, 765.5 149.5 C 772.1 150.3, 780.2 151.4, 783.5 151.9 C 826.3 158.6, 825.2 158.6, 831.3 151.6 C 836.5 145.5, 844.5 141, 849.9 141 C 860.2 140.9, 861.9 139.7, 866.9 128.2 C 868.8 124, 875.9 109.3, 882.7 95.7 C 895.6 69.7, 896.7 66.1, 892.8 63.6 C 889 61.3, 886.8 61.2, 879.5 63 M 921 69 C 920.2 69.5, 917 70.5, 914 71.1 C 911 71.7, 907.9 72.7, 907.2 73.3 C 904 75.9, 874 139.5, 874 143.6 C 874.1 147.5, 882.6 157.2, 886.1 157.2 C 887.4 157.3, 892.1 156.8, 896.5 156.1 C 900.9 155.4, 907.6 154.5, 911.5 154 C 915.4 153.5, 922.8 152.4, 928 151.5 C 933.2 150.7, 940.4 149.5, 944 149 C 947.6 148.5, 954.5 147.4, 959.5 146.6 C 978.4 143.5, 989.7 141.8, 996 141 C 1010.2 139.3, 1014 137, 1014 130 C 1014 125.2, 1014.2 125.3, 982.5 104.5 C 967.6 94.7, 949.1 82.5, 941.4 77.4 C 927.7 68.3, 924.3 66.9, 921 69 M 593.3 144.8 C 587.3 150.8, 585.6 151.9, 579.4 153.8 C 575.5 155.1, 571.6 156.8, 570.7 157.8 C 569 159.7, 562.9 179.2, 546.5 234.5 C 540.6 254.3, 533.4 278.4, 530.5 288 C 515.9 335.5, 499.9 393.5, 500.9 395.6 C 501.4 396.8, 504.5 399.5, 507.6 401.6 C 510.8 403.8, 515.4 408.1, 517.8 411.2 C 523.4 418.7, 523.6 418.7, 548.6 410.1 C 591.9 395.2, 614.3 385.2, 660.3 360.3 C 676.4 351.5, 676.7 351.1, 675 341.9 C 672.2 327, 675 317.7, 685.5 307.4 C 695.5 297.6, 713.1 292.6, 723.9 296.4 C 734.4 300.2, 734.8 299.9, 755.6 275.1 C 766.1 262.6, 780.5 245.9, 812.8 208.9 C 824.9 194.9, 830 188.4, 830 186.7 C 830 182.2, 823.3 169.1, 820.8 168.6 C 819.5 168.3, 813.3 167.4, 807 166.5 C 800.7 165.7, 779.8 162.7, 760.5 160 C 741.2 157.3, 714.9 153.7, 702 152.1 C 689.1 150.4, 676.2 148.6, 673.5 148.1 C 670.8 147.5, 662.9 146.4, 656 145.5 C 649.1 144.7, 641 143.5, 638 143 C 635 142.5, 629.8 141.8, 626.5 141.5 C 623.2 141.1, 618.2 140.5, 615.5 140 C 612.8 139.5, 608.1 138.9, 605.3 138.5 L 600 137.9 593.3 144.8 M 1081.3 147.5 C 1080.7 149.2, 1085.1 154, 1087.3 154 C 1088.4 154, 1108 163, 1125.5 171.5 C 1158.5 187.6, 1205.1 209.6, 1225 218.5 C 1230.2 220.8, 1240 225.5, 1246.7 228.9 C 1260.2 235.7, 1263.2 236.2, 1268.9 232.6 C 1271 231.2, 1275.4 229.4, 1278.5 228.6 C 1286 226.7, 1285.3 227.7, 1292 209.4 C 1295.2 200.6, 1299.8 187.8, 1302.4 180.9 C 1304.9 173.9, 1307 167.3, 1307 166.1 C 1307 163.5, 1299.8 152.5, 1297.2 151.2 C 1296.3 150.7, 1273.2 149.9, 1246 149.5 C 1218.8 149.1, 1193.1 148.6, 1189 148.5 C 1184.9 148.3, 1164.8 147.9, 1144.5 147.6 C 1124.2 147.3, 1101.8 146.7, 1094.8 146.4 C 1083.2 145.8, 1082 145.9, 1081.3 147.5 M 1000.5 151.2 C 992.8 152.6, 974.8 155.4, 954 158.5 C 948.2 159.4, 941 160.5, 938 161 C 935 161.5, 927.8 162.6, 922 163.5 C 916.2 164.4, 908.2 165.8, 904.2 166.6 C 900.2 167.4, 895.6 168, 893.9 168 C 888.9 168, 885 170.6, 885 174 C 885 178, 885.7 178.5, 905.2 189 C 914.7 194.1, 934.2 204.7, 948.5 212.5 C 962.8 220.3, 983.5 231.5, 994.5 237.3 C 1005.5 243.1, 1021.5 251.7, 1030 256.4 C 1047.3 266, 1047.3 266, 1054.7 260.4 C 1071.1 247.9, 1094.8 250.2, 1110 266 C 1117.8 274.1, 1118.7 274.4, 1126.8 272.6 C 1130.5 271.8, 1137.5 270.4, 1142.5 269.5 C 1147.5 268.6, 1156.2 266.9, 1162 265.9 C 1177 263, 1185.9 261.4, 1199 259 C 1205.3 257.9, 1213.4 256.3, 1217 255.5 C 1228 253.1, 1239.2 251.1, 1245.3 250.4 C 1257.2 249, 1256.7 245, 1244 239.6 C 1231.7 234.4, 1227.6 232.5, 1195.1 216.7 C 1177.2 208, 1160.5 200, 1158 199 C 1155.5 198, 1147.4 194.3, 1140 190.7 C 1132.6 187.1, 1116.8 179.6, 1105 174 C 1093.2 168.4, 1082.1 163, 1080.4 161.9 C 1076.2 159.4, 1072.3 159.5, 1068.6 162.4 C 1056.6 171.5, 1042.5 173, 1030.2 166.5 C 1024.3 163.4, 1023.6 162.8, 1017.7 155.8 C 1012.4 149.4, 1011.5 149.2, 1000.5 151.2 M 540.6 162.8 C 534.5 168.7, 523.9 178.5, 517.1 184.5 C 499 200.5, 486.8 211.9, 437.1 259.2 L 425.8 270.1 426.5 275.3 C 428 284.8, 427.4 287.3, 421.2 297.2 C 419.5 299.9, 419.6 300.1, 423.3 307.2 C 436 331.1, 438.6 336.1, 441.6 341.7 C 443.5 345.1, 447.6 353, 450.8 359.2 C 462.3 381.2, 469.4 393.2, 471.6 394.2 C 473.9 395.3, 485.6 393.8, 487.1 392.3 C 487.6 391.8, 490.5 382.5, 493.6 371.5 C 496.6 360.5, 501.6 343.6, 504.6 333.9 C 509.8 316.9, 517.6 290.5, 526.6 259.5 C 529 251.2, 532.5 239.3, 534.4 233 C 536.4 226.7, 541.3 210, 545.5 196 C 549.6 182, 553.9 167.8, 555 164.5 C 557.3 157.6, 557.5 154.9, 555.8 153.2 C 553.5 150.9, 551.7 152, 540.6 162.8 M 870.7 191.7 C 863.6 195.3, 857.9 196.1, 845.1 194.9 C 840.8 194.5, 840.6 194.7, 835.3 200.5 C 829 207.4, 791.6 250.5, 782 261.9 C 778.5 266.1, 768.9 277.3, 760.8 286.8 C 744.2 306.2, 744.2 306.1, 749.5 314.1 C 755.8 323.8, 755.6 323.8, 768.5 322 C 777.6 320.7, 790.6 319.1, 800 318 C 806.6 317.3, 825.9 315, 850.5 312.1 C 854.9 311.5, 863 310.6, 868.5 310 C 874 309.3, 883.2 308.2, 889 307.4 C 894.8 306.5, 905.4 305.3, 912.5 304.5 C 919.6 303.7, 929.1 302.6, 933.5 302 C 937.9 301.5, 945.3 300.6, 950 300 C 954.7 299.5, 962.3 298.6, 967 298 C 971.7 297.4, 981.4 296.3, 988.5 295.5 C 995.6 294.7, 1005.1 293.6, 1009.5 293 C 1013.9 292.4, 1021.3 291.5, 1026 290.9 C 1035.6 289.8, 1038.4 288, 1040 281.9 C 1041.8 275.1, 1041 274.4, 1014.1 260 C 976.2 239.5, 952.1 226.6, 933.5 216.8 C 924.1 211.8, 913.6 206.1, 910 204 C 897.5 196.9, 880.2 188, 878.9 188.1 C 878.1 188.1, 874.4 189.7, 870.7 191.7 M 1246 261.6 C 1228.3 265, 1223 266, 1214.5 267.5 C 1203.9 269.4, 1187.5 272.5, 1177 274.5 C 1163.8 277.1, 1153.7 278.9, 1145 280.4 C 1119.8 284.7, 1120.5 284.4, 1119.5 292.3 C 1118.4 299.8, 1114.9 306.9, 1109.1 313.4 C 1106.3 316.5, 1104 319.8, 1104 320.8 C 1104 321.8, 1107.1 327.8, 1110.9 334.1 C 1114.7 340.4, 1120.6 350.4, 1124.1 356.4 C 1127.5 362.5, 1132.4 370.8, 1135 374.9 C 1137.6 379.1, 1144.4 390.4, 1150.1 400 C 1170 433.7, 1180.1 450.5, 1181.3 451.7 C 1182 452.3, 1188.9 455.6, 1196.7 458.9 C 1204.5 462.2, 1220.4 469.7, 1232 475.5 C 1243.7 481.3, 1254.2 486, 1255.5 486 C 1256.8 486, 1263.6 482.9, 1270.7 479.1 C 1288.9 469.4, 1324.7 450.2, 1336.9 443.6 C 1342.6 440.5, 1347.6 437.8, 1347.9 437.4 C 1348.2 437.1, 1348.7 433.1, 1349.1 428.5 C 1349.5 421.4, 1350 419.6, 1352.6 416 C 1358.8 407, 1359 406.5, 1358.5 404.1 C 1358.1 402.7, 1356.2 398.7, 1354.1 395.1 C 1352 391.5, 1347.9 384, 1345 378.5 C 1342.1 373, 1336.4 362.3, 1332.4 354.6 C 1328.3 347, 1325 340.6, 1325 340.4 C 1325 340.2, 1321.7 334.1, 1317.7 326.8 C 1313.6 319.5, 1307.9 309, 1305 303.5 C 1290.1 275.2, 1290.7 276, 1281.3 274.8 C 1273.8 273.9, 1269.3 271.4, 1262.6 264.4 C 1257.9 259.5, 1257.6 259.5, 1246 261.6 M 1302.7 266.5 C 1299.8 269.3, 1300.7 271.7, 1311.4 291.4 C 1317.1 301.9, 1324.7 316.2, 1328.3 323.1 C 1331.9 330, 1337.9 341.3, 1341.8 348.1 C 1348.7 360.5, 1358.4 378.7, 1364.7 391 C 1370 401.5, 1371.9 403, 1379.7 403 C 1382.3 403, 1386.7 403.7, 1389.3 404.5 C 1395.7 406.4, 1397.8 405.5, 1407.1 396.7 C 1417.9 386.4, 1442.3 365.2, 1461.8 349.1 C 1473.1 339.8, 1473.9 338.4, 1471.6 331.6 C 1470.7 329, 1470 325.9, 1470 324.7 C 1470 321, 1467.3 318.3, 1461.7 316.5 C 1458.9 315.5, 1451.1 312.8, 1444.5 310.4 C 1437.9 308.1, 1423.7 303.3, 1413 299.9 C 1391.4 293.1, 1329.5 272.6, 1318.5 268.7 C 1308.2 265, 1304.6 264.5, 1302.7 266.5 M 1031.8 301.5 C 1031.5 301.8, 1024.6 302.7, 1016.4 303.6 C 1001.5 305.1, 993 306.1, 979 307.9 C 974.9 308.4, 967.2 309.3, 962 309.9 C 956.8 310.5, 951.1 311.2, 949.5 311.5 C 947.9 311.7, 938.6 312.9, 929 314.1 C 919.4 315.2, 908.4 316.5, 904.5 317 C 900.6 317.5, 893.7 318.3, 889 318.9 C 884.3 319.5, 877.1 320.4, 873 320.9 C 855.6 323.1, 838.9 325.1, 830 326.1 C 824.8 326.6, 817.6 327.5, 814 328 C 810.4 328.5, 800.8 329.6, 792.5 330.4 C 757 334, 757.3 334, 754.4 341.5 C 751.5 349.3, 748.9 347.3, 798.5 375.3 C 845.3 401.6, 867.6 414.3, 872.4 417.3 L 877.3 420.4 885.4 419.1 C 917.6 414.1, 977 411.3, 1006.4 413.5 C 1054.1 417, 1118.2 430.1, 1153.2 443.6 C 1157.1 445.1, 1158.1 445.2, 1159.4 444 C 1161.5 442.3, 1160.9 440.7, 1155.1 431.2 C 1152.4 427, 1147 417.9, 1143 411 C 1139 404.1, 1132 392.4, 1127.5 385 C 1123 377.6, 1113.3 361.5, 1106 349.2 C 1098.7 336.9, 1092.2 326.6, 1091.7 326.3 C 1091.2 326, 1085.5 325.7, 1079 325.6 C 1067.9 325.5, 1067 325.3, 1061 322.2 C 1057.6 320.5, 1053.5 319, 1052.1 319 C 1049.4 319, 1048.8 319.4, 1035.4 329.4 C 1031.1 332.7, 1018 342.5, 1006.4 351.2 C 994.7 359.9, 984.9 367.7, 984.6 368.6 C 984.3 369.4, 984 372.6, 984 375.5 C 984 393.8, 959 401.6, 948 386.7 C 937.9 372.9, 950.7 354.5, 968 357.9 C 975.6 359.4, 977 359, 985 352.5 C 988.6 349.7, 994.4 345.4, 998 342.9 C 1008.9 335.6, 1041.5 309.9, 1042.1 308.1 C 1042.8 306.4, 1041.4 303, 1039.6 301.8 C 1038.3 300.9, 1032.6 300.7, 1031.8 301.5 M 402.7 305.8 C 399.8 309, 395.5 320.5, 372.4 386.5 C 366.6 403, 360.5 420.3, 358.8 425 C 350.5 448.5, 344.3 466, 339.4 480.3 C 336.4 489, 333.3 497.5, 332.4 499.2 C 330.2 503.4, 331.2 506.1, 336.4 510.4 C 345.1 517.5, 345.6 517.4, 362.2 506.8 C 366.8 503.8, 373 499.9, 376 498.1 C 379 496.2, 384.4 492.8, 388 490.5 C 399.4 483.1, 429.3 464.3, 435.8 460.6 C 439.2 458.5, 443.2 455.9, 444.7 454.6 L 447.4 452.2 445.2 445.4 C 440.1 430, 442.5 418.9, 453.5 406.3 C 459.1 399.9, 459.1 399.8, 453.1 388.6 C 445.9 375.2, 440.7 365.3, 432.2 349 C 420 325.5, 408.9 305.6, 407.7 304.8 C 405.8 303.6, 404.4 303.9, 402.7 305.8 M 377.3 312.1 C 373.6 315.6, 367.8 320.9, 364.5 324.1 C 361.2 327.2, 354.7 333.1, 350 337.3 C 335.6 350, 327.9 356.9, 310.4 372.9 C 301.1 381.4, 287 394.2, 279.1 401.4 C 271.1 408.6, 258.5 420.1, 251 427 C 243.6 433.9, 227.4 448.7, 215.1 460 C 186.9 485.7, 189 483.7, 189 485.9 C 189 486.9, 191.2 490, 193.9 492.8 C 197 496.2, 199.5 500, 200.9 503.9 C 203.7 511.7, 204.4 512.1, 216.3 513.7 C 245.7 517.5, 265.1 520.2, 277.3 522.2 L 285.1 523.4 291.4 516.8 C 298.4 509.4, 303.3 506.5, 310.5 505.5 C 313.4 505, 316.2 503.8, 317.5 502.6 C 319.8 500.2, 326.6 481.8, 347.5 421 C 357.7 391.2, 379.9 329, 384.2 318.1 C 389.3 305, 387.1 303.1, 377.3 312.1 M 1477.4 350.9 C 1474.1 353.1, 1467.7 358.3, 1463 362.6 C 1458.3 366.8, 1448.7 375.3, 1441.5 381.3 C 1416.8 402.3, 1406 412.2, 1405.4 414.6 C 1405.1 415.9, 1405.5 419.1, 1406.4 421.7 C 1408.6 428, 1408.4 432.2, 1405.8 438.2 C 1404.2 441.9, 1403.9 443.8, 1404.6 445.6 C 1405.4 447.6, 1429.7 473, 1478 522.2 C 1489 533.4, 1491.4 534.3, 1497.2 529.1 L 1500.5 526.2 1500.2 487.4 C 1500 466, 1499.5 427.7, 1499 402.2 C 1498.1 351.2, 1498.3 352.4, 1491.7 349.7 C 1484.6 346.7, 1483.5 346.8, 1477.4 350.9 M 738.6 362.5 C 728.6 367.8, 721.1 370, 713 370 C 709.1 370, 704.9 370.5, 703.8 371.1 C 702.1 372, 677.5 420.4, 659.2 459 C 649.7 479, 629.7 520.2, 625.4 528.3 C 617.9 542.6, 621.2 546.6, 632.3 536.6 C 646.7 523.6, 680.2 497.7, 693.2 489.4 C 713.2 476.7, 717.4 474.3, 731.9 467 C 755.9 454.9, 778.1 446.1, 801.8 439.1 C 826.5 431.8, 843 427.2, 847.5 426.4 C 857.3 424.7, 857.7 421.4, 848.8 416.9 C 840.1 412.6, 818.6 400.4, 792 384.8 C 779.5 377.5, 756.9 364.6, 749 360.4 C 745.7 358.6, 746.1 358.5, 738.6 362.5 M 671 367.6 C 657.6 375.3, 608.4 399.6, 599 403.3 C 580 410.8, 563.6 416.9, 547.5 422.5 C 537.6 425.9, 528.8 429.1, 527.8 429.5 C 526 430.2, 524.5 433.5, 523.4 439 C 523.1 440.9, 522.1 443.7, 521.4 445.2 C 518 451.8, 518.4 452.3, 540.8 473.2 C 569.4 500, 590.4 519.4, 598.4 526.5 C 609.5 536.3, 607.6 538.1, 626.5 499 C 642.6 465.6, 665.7 418, 681.6 385.3 C 690.7 366.8, 690.8 366.5, 688.4 363.2 C 686.1 359.9, 683.5 360.5, 671 367.6 M 1510.7 375.2 C 1510.5 375.9, 1510.7 401.2, 1511.1 431.5 C 1512.2 505.3, 1512.7 522.2, 1513.5 524.2 C 1513.9 525.1, 1517.3 527.1, 1521.1 528.5 C 1538.2 535.1, 1545.6 551.1, 1538 565.3 C 1534 572.8, 1533.9 572.2, 1542.3 583.6 C 1546.3 589, 1557.6 604.8, 1567.5 618.5 C 1577.3 632.2, 1589.2 648.7, 1593.9 655.1 C 1598.6 661.5, 1606.3 672, 1611 678.5 C 1629.4 704.2, 1631.8 704.4, 1622.9 679.7 C 1615.3 658.6, 1607.1 635.3, 1605 628.5 C 1604 625.2, 1601.8 618.9, 1600 614.5 C 1598.3 610.1, 1595.8 603.6, 1594.5 600 C 1586.9 578.5, 1581.1 562.3, 1572.1 537.5 C 1556.4 494.3, 1544.9 461.9, 1540 447 C 1539 444, 1536.8 437.7, 1535 433 C 1533.2 428.3, 1530.9 422, 1529.9 419 C 1528.9 416, 1526.6 409.7, 1524.9 405 C 1523.2 400.3, 1521.1 394.2, 1520.4 391.5 C 1517 379.2, 1512.3 371.2, 1510.7 375.2 M 942.9 442.4 C 942.6 442.7, 938.4 443, 933.5 443.1 C 913.9 443.5, 880.7 447.4, 857 452 C 832.8 456.7, 824.9 458.4, 817.5 460.5 C 813.1 461.8, 806.6 463.6, 803 464.5 C 792.7 467.1, 756.2 479.5, 745.9 483.9 C 740.7 486.1, 732 489.7, 726.5 492.1 C 713 497.7, 692.1 508.3, 676 517.5 C 660.7 526.3, 661.9 525.6, 647 535.2 C 640.6 539.4, 633.9 543.5, 632 544.5 C 630.1 545.5, 627.2 547.4, 625.6 548.7 C 618.1 555, 610.9 556.1, 608.2 551.5 C 607.8 550.8, 602.7 546, 596.9 540.9 C 585 530.3, 556.3 503.8, 530.2 479 C 520.6 469.9, 512.1 462.1, 511.3 461.6 C 510.3 461.1, 507.5 461.8, 503.1 463.9 C 499.4 465.6, 493.9 467.4, 490.9 468 C 484.8 469.1, 481 472.4, 481 476.6 C 481 478, 480.3 481.9, 479.5 485.3 C 478.7 488.7, 476 501.2, 473.6 513 C 471.1 524.8, 468.2 538.4, 467.1 543.2 C 465.9 548, 463.5 559.7, 461.6 569.2 C 457.6 589.3, 453.9 606.2, 450.5 621 C 446.8 636.8, 440 670.4, 440 672.6 C 440 678, 443.5 677.6, 449.8 671.6 C 455.5 666.2, 457.4 662.4, 461 648.8 C 471 611.4, 497.9 580.2, 540.7 556.6 C 563 544.2, 565.7 546.3, 549.3 563.3 C 523.8 589.7, 512.4 607.2, 506.9 628.5 C 503.6 640.8, 504.8 660.8, 509 667.7 C 513.3 674.5, 521.7 671.7, 541 657.2 C 557.6 644.8, 567 638.2, 596.6 618.1 C 603.3 613.6, 612.1 607.1, 616.1 603.7 C 620.2 600.3, 625.5 595.9, 628 593.9 C 633.4 589.6, 659.8 571.9, 669 566.5 C 672.6 564.4, 677.2 561.5, 679.3 560.2 C 705.5 542.9, 771.4 512.3, 798.8 504.5 C 803.6 503.2, 809.5 501.4, 812 500.5 C 824.8 496, 870 486.5, 890.5 484.1 C 895.5 483.5, 905.4 482.3, 912.5 481.4 C 941.8 477.7, 998 479.4, 1039.5 485.1 L 1054.5 487.2 1071 481.5 C 1087.4 475.8, 1098.7 472.2, 1106.8 470.1 C 1111.6 468.8, 1112.5 466, 1108.8 463.6 C 1106.4 462.2, 1062.6 451.1, 1051 449 C 1047.4 448.4, 1042.5 447.5, 1040 447 C 1023.1 443.7, 945.3 440.1, 942.9 442.4 M 1339.5 454.7 C 1332.9 458.3, 1319.8 465.4, 1310.5 470.5 C 1301.2 475.6, 1288.5 482.4, 1282.5 485.5 C 1265 494.7, 1264.6 495.7, 1274.8 502.3 C 1289.5 512, 1320.3 536.6, 1334.1 549.9 C 1345.2 560.6, 1342.9 565.1, 1330.8 556.5 C 1289.6 527.1, 1253 510.6, 1210 501.9 C 1204.8 500.9, 1198.2 499.4, 1195.5 498.8 C 1188.4 497, 1134.2 497.3, 1130.3 499.2 C 1125 501.7, 1126.8 503.2, 1142 508.6 C 1183.4 523.2, 1234.7 549.5, 1265 571.8 C 1299.3 597, 1312.9 609.9, 1339.2 642.6 C 1358.2 666.1, 1393 684.6, 1440.6 696.6 C 1451.3 699.3, 1451 699.6, 1460.7 673.4 C 1465.2 661.3, 1470.7 646.8, 1473 641 C 1475.3 635.2, 1478.6 626.2, 1480.5 621 C 1482.3 615.8, 1486.2 605.4, 1489.1 598 C 1496.5 578.8, 1496.5 579.1, 1489.4 571.8 C 1481.4 563.6, 1481.3 563.6, 1464.1 565.9 C 1456.1 567, 1445 568.3, 1439.5 568.9 C 1434 569.6, 1426.3 570.5, 1422.5 571 C 1414.2 572.2, 1386.5 575.5, 1373 577 C 1367.8 577.6, 1360.1 578.5, 1356 579 C 1321.6 583.4, 1300.6 584.1, 1296.6 580.9 C 1290.7 576.2, 1293.5 574.7, 1311 573.1 C 1317.9 572.5, 1330 571.1, 1338 570 C 1346 569, 1357 567.7, 1362.5 567.1 C 1373 565.9, 1384.1 564.5, 1395 563 C 1398.6 562.5, 1404.9 561.8, 1409 561.5 C 1413.1 561.2, 1419.7 560.5, 1423.5 560 C 1433.5 558.6, 1454.1 556, 1463.5 555 C 1478.2 553.4, 1482 551.4, 1482 545.2 C 1482 542.2, 1480 539.8, 1462.1 521.2 C 1424.9 482.6, 1395.6 454, 1393.1 454 C 1391.9 454, 1387.8 454.5, 1384 455.1 C 1375.2 456.4, 1367.8 455.1, 1361.4 451.1 C 1354.9 446.9, 1353.3 447.2, 1339.5 454.7 M 446.9 467.2 C 443.4 469.4, 433.8 475.6, 425.5 480.8 C 412.6 488.9, 389 503.8, 361.2 521.3 C 350.8 527.8, 351 527.6, 350.6 535.6 C 350.2 543.9, 348 548.8, 341 556.5 C 338.2 559.6, 336 562.7, 336 563.5 C 336 564.3, 341.5 575.9, 348.3 589.2 C 361.5 615.5, 385.2 663.6, 392.4 679.1 C 397.2 689.4, 397.9 690, 404.3 690 C 408 690, 410.9 689.5, 419.8 687.5 C 421.2 687.1, 422.7 685.6, 423.5 683.7 C 425.2 679.4, 435.4 635.4, 439.1 616.3 C 440.6 607.9, 442.9 597.5, 444 593.1 C 445.1 588.7, 446.9 580.9, 447.9 575.8 C 455.5 539, 463.4 501.1, 466.3 487.7 C 468.2 479, 469.5 471, 469.3 469.9 C 468.6 467.5, 460.1 463, 456.2 463 C 454.5 463, 450.6 464.7, 446.9 467.2 M 948 514.7 C 934.7 515.1, 906.6 517.1, 901.5 518 C 898.8 518.5, 891.3 519.6, 885 520.5 C 878.7 521.4, 872.2 522.6, 870.6 523.1 C 869 523.6, 864.8 524.5, 861.2 525 C 853.3 526.3, 836.6 530.8, 820 536.1 C 813.1 538.3, 803.9 541.3, 799.5 542.7 C 781.6 548.4, 733.5 571.1, 715 582.6 C 710.3 585.5, 703.4 589.8, 699.5 592.1 C 687.2 599.6, 671.9 610.9, 629.6 643.8 C 624.1 648, 616.8 653.8, 613.2 656.5 C 606.4 661.8, 589.7 675.8, 576.3 687.5 C 547.3 712.8, 540.7 716, 522.7 713.1 C 515.5 712, 492.8 708.6, 481.5 707 C 478.2 706.5, 472.1 705.6, 468 705 C 455.3 703.1, 425.3 699.6, 399.6 697.1 C 394.4 696.6, 389.3 695.6, 388.2 694.9 C 387.1 694.2, 381.6 684, 375.9 672.2 C 370.2 660.3, 356.3 632.2, 345 609.6 C 322.8 565, 322.8 565.1, 315.5 566.4 C 310.7 567.3, 309 569.5, 298.1 588.5 C 264.1 647.9, 248.2 666, 189 713.4 C 174.4 725, 172.4 727.1, 173.4 729.6 C 174.1 731.4, 177.9 731.2, 186.5 729 C 197 726.3, 221.7 719.8, 226.5 718.5 C 277.2 704.2, 358.2 705.9, 427 722.7 C 432.8 724.1, 439.3 725.6, 441.5 726 C 450.9 727.8, 483.3 736.6, 500.5 741.9 C 505.4 743.5, 513.5 746, 518.5 747.5 C 537.2 753.2, 553.7 759.4, 558.5 762.6 C 561.2 764.4, 570.7 772.3, 579.5 780 C 627.5 822.4, 686.3 858.9, 736.5 877.5 C 741.5 879.3, 749.8 882.5, 755 884.5 C 765.7 888.6, 788 895.4, 795.5 897 C 798.2 897.5, 803.2 898.6, 806.5 899.4 C 824.4 903.6, 832.8 905.4, 845 907.5 C 897.6 916.8, 952.5 917.9, 1010 911 C 1017.9 910.1, 1039 906.1, 1040.2 905.4 C 1040.7 905.1, 1043.9 904.4, 1047.3 904 C 1067 901.2, 1122.4 882.4, 1150.5 869 C 1152.7 867.9, 1157 866, 1160.1 864.7 C 1171.1 859.9, 1210.8 837.6, 1225 828.2 C 1233 822.9, 1247.3 812.2, 1256.9 804.5 C 1266.5 796.8, 1275.7 789.4, 1277.4 788 C 1286 781.3, 1304.6 765.5, 1313.7 757.3 C 1319.3 752.3, 1325 747.4, 1326.3 746.5 C 1330.6 743.7, 1338.9 743, 1348.7 744.5 C 1360.3 746.4, 1400.4 750.9, 1415.5 752 C 1422.1 752.5, 1438.1 753.8, 1451 755 C 1464.3 756.2, 1476.8 756.8, 1479.8 756.5 C 1488.1 755.5, 1490.5 759.2, 1485.5 765.2 C 1482.4 768.9, 1482.3 768.5, 1491.2 787 C 1495 795, 1501.3 808.2, 1505 816.5 C 1508.8 824.8, 1514.4 836.7, 1517.5 843 C 1524.6 857.3, 1532.5 873.8, 1535.7 880.9 C 1540.3 891.5, 1542.1 893, 1550 893 C 1558.3 893, 1558.8 892.5, 1568.4 875.1 C 1572 868.6, 1578.4 857.4, 1582.6 850.4 C 1596.5 827, 1599.6 821.6, 1603.5 814.5 C 1605.6 810.6, 1609.9 803.2, 1613 798 C 1632.5 765.2, 1631.6 767.6, 1627 760.3 C 1620.4 750, 1620 740.2, 1625.7 731.5 C 1630.4 724.4, 1630.7 725.1, 1611.3 698 C 1605.6 690, 1597.8 679.2, 1593.9 674 C 1590.1 668.8, 1580.8 656, 1573.3 645.5 C 1565.8 635, 1555.3 620.6, 1550 613.5 C 1544.7 606.4, 1537.5 596.5, 1534 591.6 C 1526.1 580.6, 1524.5 579.5, 1518.1 580.4 C 1506.8 581.9, 1507.3 581.3, 1500 601.5 C 1497.2 609.2, 1490.7 626.3, 1485.5 639.5 C 1480.4 652.7, 1473.4 671.5, 1470 681.2 C 1462.4 703.2, 1462.3 702.7, 1476 705.5 C 1502.3 711, 1505 711.4, 1534.2 716 C 1554.8 719.2, 1569.1 720.4, 1587.5 720.4 C 1607.3 720.5, 1607.5 720.5, 1607.8 722.7 C 1608.7 728.8, 1567.2 740.5, 1540.5 741.6 C 1526.9 742.2, 1492.2 740.6, 1481 739 C 1477.4 738.4, 1469.3 737.3, 1463 736.5 C 1456.7 735.6, 1449.2 734.5, 1446.5 734 C 1443.8 733.5, 1437.2 732.3, 1432 731.4 C 1412.9 728.1, 1367.4 716.5, 1354.1 711.5 C 1328.3 702, 1321.7 698.7, 1317.6 693.1 C 1314.5 688.8, 1303.1 670, 1296.5 658.5 C 1266.3 605.2, 1178.9 551.3, 1089 530.5 C 1086 529.8, 1080.3 528.5, 1076.5 527.6 C 1033.1 517.5, 992.2 513.5, 948 514.7 M 923 555.5 C 880.9 560.3, 837.4 582.2, 812.1 611.3 C 762 668.7, 758.1 744.8, 802.1 803.5 C 826.1 835.5, 861.1 858.9, 899.4 868.5 C 933.5 877, 956.6 877.4, 993.1 870.1 C 1040.9 860.5, 1085.3 827.7, 1108.3 785 C 1124.3 755.4, 1130.1 712, 1121.9 683.5 C 1111.3 646.8, 1097.8 624.5, 1072.3 601.5 C 1033.4 566.6, 977.1 549.3, 923 555.5 M 937 583 C 911.1 584.6, 884.6 593.5, 861.6 608.4 C 836.4 624.8, 815.6 652.6, 808.9 678.8 C 806.9 686.7, 806.9 686.8, 808.8 695.6 C 813.5 717.2, 821.5 731.9, 840.7 754.2 C 861.9 778.7, 877.7 789.8, 902.4 797.6 C 914.4 801.4, 915.2 805.7, 903.6 804.5 C 878 802, 840.7 784.7, 820.6 765.9 C 808.2 754.3, 807.8 759.4, 819.6 778.3 C 835.3 803.4, 853.4 819.7, 880.5 833.3 C 897.1 841.6, 907.9 844.4, 934.5 847.6 C 975.8 852.5, 1025.7 835.5, 1056.3 806.1 C 1071.8 791.4, 1093 754, 1093 741.6 C 1093 735.7, 1091.5 736.6, 1083.8 747 C 1073.3 761.2, 1050.2 779.7, 1034.3 786.6 C 1017.8 793.7, 1013 795.3, 1006.8 795.8 C 995.8 796.6, 997.5 794.4, 1015.5 785 C 1051.7 766.1, 1072.3 740.3, 1083.1 700.5 C 1089.2 678, 1088.2 671.6, 1075.7 649.5 C 1057.6 617.6, 1014 589.4, 975.1 584.6 C 958.2 582.5, 951 582.2, 937 583 M 228 732 C 218 733, 200.3 735.5, 193.5 737 C 191.3 737.5, 186.8 738.2, 183.5 738.6 C 177.2 739.3, 172 742.9, 172 746.6 C 172 747.5, 170.6 750.7, 168.9 753.7 C 165.1 760.3, 165.3 760.8, 173.9 771.4 C 178.9 777.6, 184 784.5, 200 807.4 C 201.9 810.1, 208.7 819.4, 215 827.9 C 221.3 836.5, 231.4 850.3, 237.3 858.5 C 253 880.4, 253.3 880.6, 259.1 879 C 261 878.4, 265.1 878, 268.2 878 C 276.1 878, 277.3 876.6, 287.1 856 C 291.6 846.4, 301.6 825.9, 309.3 810.5 C 330.3 768.4, 342 743.9, 342 742 C 342 739.2, 339.5 737.9, 332.3 736.9 C 298.9 732.3, 293.5 731.9, 266 731.5 C 250.3 731.3, 233.2 731.5, 228 732 M 366 745.4 C 366 747, 368.2 750.7, 372.3 755.7 C 375.7 760, 387.1 775, 397.7 789 C 408.2 803, 422.3 821.5, 428.9 830 C 435.6 838.5, 443.4 848.9, 446.4 853 C 449.4 857.2, 452.8 861.4, 453.9 862.4 C 458.2 866.3, 460.6 861.3, 457.6 854.7 C 456.2 851.6, 454.1 846, 450 834 C 449 831, 446.7 824.7, 445 820 C 443.3 815.3, 441.1 809, 440 806 C 439 803, 436.7 796.9, 435 792.5 C 433.3 788.1, 431 782, 430 779 C 424 761.2, 422.9 759.3, 417.6 757 C 410.6 753.9, 377.1 744.3, 369.8 743.3 C 366.3 742.8, 366 743, 366 745.4 M 334.1 787.2 C 324.9 806.1, 310.7 834.7, 302.7 850.9 C 294.6 867.1, 288 880.9, 288 881.6 C 288 882.3, 289.8 885, 292 887.5 C 294.2 890.1, 296.7 893.4, 297.4 894.8 C 300.8 901.4, 301 901.4, 321.2 900 C 331.3 899.4, 339.8 898.6, 340.1 898.4 C 340.7 898.1, 357.1 896.7, 402.2 893 C 430.8 890.8, 432.9 890.2, 435.4 883.9 C 436.4 881.5, 438.5 878.1, 440.2 876.3 C 445.5 870.8, 444.8 868.9, 430.4 851 C 426.2 845.8, 414.9 831.1, 405.4 818.5 C 395.8 805.9, 382.5 788.5, 375.9 780 C 369.3 771.5, 362.2 762, 360.2 759 C 357.4 754.9, 355.8 753.4, 353.7 753.2 C 351 752.9, 350.5 753.7, 334.1 787.2 M 439.3 765.7 C 438.9 766.6, 439.7 770.1, 440.9 773.4 C 442.2 776.8, 445.5 785.8, 448.2 793.5 C 450.9 801.2, 454.2 810.6, 455.6 814.5 C 457 818.4, 458.9 824, 460 827 C 461 830, 463.3 836.1, 465 840.5 C 466.7 844.9, 469 851.2, 470.1 854.5 C 472.6 862.4, 473.3 863.1, 481.5 867.3 C 496.5 874.8, 504 887.4, 501 900 C 500 904.3, 500 905.4, 501.3 907.4 C 503 910, 529.1 929.5, 558 950 C 568.2 957.2, 582.5 967.5, 589.9 972.8 C 597.3 978.1, 609.9 987.2, 617.9 992.9 C 625.9 998.7, 637.3 1006.9, 643.3 1011.2 C 655.6 1020.1, 657.5 1020.8, 663 1018.6 C 667.6 1016.8, 677.5 1016.5, 681.7 1018.1 C 683.2 1018.7, 687.2 1022, 690.5 1025.5 L 696.5 1032 756.5 1032.7 C 819.9 1033.4, 822.4 1033.4, 824.6 1032.6 C 827.4 1031.5, 825.9 1027.3, 819.7 1019 C 811.7 1008.4, 811.7 1008.4, 803.9 1006.5 C 800.4 1005.7, 795 1004.3, 792 1003.5 C 720.5 984.8, 678 967.9, 633.5 940.7 C 589.7 913.9, 551 885.2, 543.9 874.1 C 537.7 864.5, 542.5 865.8, 562.2 878.9 C 578.6 889.8, 594.5 898.4, 608.3 903.9 C 612.2 905.5, 618.6 908.3, 622.4 910 C 653 924, 696.7 929.6, 722 922.8 C 734.9 919.3, 736.5 915.9, 726.8 913.1 C 717.5 910.3, 700.2 902.6, 674.4 889.7 C 636.9 870.9, 614.2 857.2, 579.3 832.4 C 567.7 824, 554.2 815, 549.3 812.1 C 537.8 805.6, 502.6 789, 479.5 779.3 C 469.6 775.2, 457.3 770, 452.3 767.9 C 441.9 763.5, 440.2 763.3, 439.3 765.7 M 1461 772.1 C 1459.6 772.7, 1455 773.5, 1450.8 773.9 C 1434.1 775.7, 1414 789.6, 1414 799.5 C 1414 802.9, 1409.3 819.9, 1406.1 827.7 C 1399.3 844.7, 1390.9 856.8, 1378.8 866.7 C 1370.7 873.3, 1371.1 870.3, 1374 903.7 C 1375.1 916.4, 1376.4 931.7, 1376.9 937.6 C 1377.8 949.7, 1377.4 948.9, 1389.1 957.3 C 1395.2 961.6, 1393.6 961.7, 1413.5 956.3 C 1420.7 954.3, 1431.2 951.5, 1437 950 C 1442.8 948.5, 1451.3 946.1, 1456 944.7 C 1460.7 943.3, 1471.5 940.3, 1480 938 C 1511.6 929.5, 1516 927.5, 1516 922 C 1516 917.2, 1519.3 909.9, 1524 904.6 C 1530.4 897.2, 1530.4 896.7, 1522.1 879.7 C 1518.3 871.9, 1514 862.8, 1512.5 859.5 C 1507.9 849.5, 1503 839.1, 1496.8 826 C 1493.5 819.1, 1489.1 809.7, 1487 805 C 1479 787.1, 1471.8 772.9, 1470 772 C 1467.7 770.8, 1464.3 770.8, 1461 772.1 M 1351.5 785.7 C 1349.8 786.6, 1345.1 789.9, 1341 793 C 1336.9 796.1, 1329 801.7, 1323.5 805.4 C 1318 809.2, 1307.7 816.7, 1300.5 822 C 1276.9 839.6, 1246.4 859.7, 1222.5 873.3 C 1204.8 883.3, 1199.5 886.1, 1185.2 892.9 C 1156.5 906.4, 1124.3 919.6, 1107 924.7 C 1086 930.9, 1056.6 939, 1054.7 939 C 1053.7 939, 1050.1 939.6, 1046.7 940.4 C 1039.3 942.1, 1024.8 944.4, 1012.5 946 C 1007.5 946.6, 1000.8 947.5, 997.5 948 C 968.2 952.7, 901.4 951.5, 859 945.6 C 836.6 942.5, 826.1 940.7, 816.5 938.5 C 802.2 935.2, 803 935.1, 787 943 C 779 947, 768.9 951.3, 764.5 952.6 C 760.2 953.9, 756.1 955.5, 755.6 956 C 754 957.6, 757.7 960.7, 762.8 961.9 C 765.4 962.6, 771.3 964.2, 776 965.5 C 807 974.1, 832.3 979.6, 853 982.5 C 859.3 983.3, 865.9 984.2, 867.5 984.5 C 892.8 988.4, 938.5 990, 964.7 988.1 C 973.4 987.4, 983.4 986.7, 987 986.5 C 995.7 986, 1009.4 984.4, 1021 982.5 C 1026.2 981.7, 1033.8 980.5, 1037.8 980 C 1041.8 979.5, 1045.6 978.8, 1046.1 978.5 C 1046.6 978.2, 1050.2 977.3, 1054.2 976.6 C 1096.2 969, 1167.5 944.9, 1207.6 924.9 C 1222.4 917.5, 1230.5 913.9, 1232.1 914.2 C 1239.3 915.4, 1202.7 940.8, 1164.4 961.2 C 1129.8 979.7, 1099.1 991.3, 1059.9 1000.8 C 1045.6 1004.3, 1037.2 1006.1, 1016.7 1010.1 C 1014 1010.6, 1010.3 1011, 1008.3 1011 C 1004 1011, 994 1013.8, 994 1015 C 994 1016.4, 997 1017.7, 1001.8 1018.3 C 1007.6 1019, 1012.7 1023.1, 1015.6 1029.5 C 1018.8 1036.4, 1020.4 1037.7, 1028.6 1039.9 C 1032.4 1040.9, 1040.2 1043.2, 1046 1045 C 1051.8 1046.8, 1059.2 1049, 1062.5 1050 C 1065.8 1050.9, 1074.1 1053.4, 1081 1055.4 C 1087.9 1057.5, 1100 1061.1, 1108 1063.5 C 1116 1065.9, 1128.8 1069.7, 1136.5 1072 C 1167 1081.2, 1163.6 1081.2, 1173.6 1072.1 C 1180.5 1065.7, 1188 1062.1, 1196.8 1060.8 C 1205.6 1059.5, 1205.9 1059.2, 1210.8 1044.5 C 1233.1 978.2, 1251.2 927.1, 1255 920.1 C 1256 918.1, 1258.8 911.6, 1261.1 905.7 C 1265.6 894.1, 1268.6 890.6, 1271.9 892.7 C 1274.7 894.5, 1273.7 898.3, 1259.6 939 C 1252 960.7, 1243.9 984.4, 1241.6 991.5 C 1239.2 998.6, 1233 1016.9, 1227.8 1032.1 C 1217.6 1062, 1217.4 1063, 1222.9 1066.3 C 1228.5 1069.6, 1230.1 1069, 1244 1058.5 C 1249.2 1054.5, 1256.4 1049.4, 1260 1047 C 1263.6 1044.6, 1271.8 1038.7, 1278.2 1034 C 1284.7 1029.3, 1293.7 1022.9, 1298.2 1019.7 C 1302.8 1016.5, 1310.5 1011, 1315.5 1007.5 C 1320.5 1004, 1329.8 997.5, 1336.2 993 C 1349.9 983.6, 1350.5 982.7, 1349.1 976.1 C 1347.4 967.9, 1351.2 959.7, 1359.2 954.3 L 1363.5 951.4 1363.2 935.4 C 1362.7 907.9, 1360.6 885.9, 1358.5 884.4 C 1356.3 882.8, 1356.4 882.7, 1339.8 894.6 C 1318.8 909.7, 1304.2 916.6, 1303.2 911.9 C 1303 910.9, 1307.9 905.7, 1316.7 897.7 C 1352 865.5, 1365.6 842.6, 1368.1 811.2 C 1369.3 794.8, 1368.8 791.7, 1363.4 787 C 1359.5 783.6, 1356.1 783.2, 1351.5 785.7 M 410.5 903.1 C 407.2 903.6, 393.7 904.9, 380.5 906 C 333.1 910, 310.4 912, 307.3 912.5 C 301.6 913.5, 298 920.9, 301.3 925.1 C 302.7 927, 316.2 936.7, 331.5 947 C 337.6 951, 349 959.1, 357 964.9 C 365 970.6, 380.5 981.4, 391.5 988.9 C 402.5 996.3, 419.8 1008.2, 430 1015.4 C 440.2 1022.6, 457.3 1034.4, 468 1041.7 C 478.7 1049, 490 1056.8, 493 1059 C 496 1061.2, 499.5 1063, 500.8 1063 C 505.4 1063, 505.2 1059.9, 498.8 1035 C 495.6 1022.1, 491.8 1006.8, 490.4 1001 C 489.1 995.2, 486.9 986.5, 485.5 981.5 C 484.1 976.5, 480.7 964, 478 953.5 C 470.8 925.3, 471.2 926, 462.3 926 C 453 926, 441.3 918.4, 436.8 909.5 C 432.7 901.5, 428.7 900.5, 410.5 903.1 M 486.6 922.1 C 483.6 925.6, 483.4 927.6, 485.6 934.5 C 486.4 937.2, 488.2 944, 489.5 949.5 C 490.8 955, 494.4 969.4, 497.6 981.5 C 502.6 1000.7, 505 1010.7, 513.5 1045.5 C 516.2 1057, 517.2 1058.6, 522.7 1060.4 C 525.3 1061.3, 529.3 1063.4, 531.4 1065 C 536.2 1068.6, 537.5 1068.7, 548.1 1065.5 C 552.7 1064.1, 561 1061.8, 566.5 1060.5 C 572 1059.1, 578.7 1057.2, 581.4 1056.3 C 584 1055.5, 588.8 1054.2, 591.9 1053.5 C 597.7 1052.2, 626.5 1044.3, 636 1041.4 C 646.5 1038.3, 648.3 1037.5, 649.3 1035.9 C 651.8 1032, 649.4 1029.5, 629.3 1015.1 C 597.5 992.4, 568.8 971.8, 550.5 958.6 C 489.4 914.5, 491.8 915.9, 486.6 922.1 M 1504.5 942.5 C 1497.4 944.9, 1476.3 950.9, 1465.5 953.6 C 1459.5 955.1, 1447 958.7, 1422.5 966 C 1415.3 968.2, 1407.9 970.2, 1405.9 970.5 C 1400.2 971.5, 1396.3 974.5, 1393.6 979.9 C 1392.2 982.6, 1390.6 985.1, 1390 985.5 C 1389.4 985.8, 1388.3 987.5, 1387.4 989.2 C 1385.9 992.1, 1386 992.4, 1395.8 1014.3 C 1401.3 1026.5, 1407.2 1040.1, 1409 1044.5 C 1416.5 1062.9, 1417.1 1063.5, 1428 1062.2 L 1434.5 1061.5 1448 1043.9 C 1455.4 1034.2, 1470.7 1014.2, 1481.9 999.4 C 1493.2 984.6, 1506.8 966.8, 1512.2 959.9 C 1522.4 946.7, 1523.9 943.1, 1520.1 941 C 1517.1 939.5, 1512.2 939.9, 1504.5 942.5 M 300 942.9 C 300 943.9, 302.1 947.6, 304.8 951.1 C 307.4 954.6, 312.9 962.2, 317 968 C 321.1 973.8, 330.3 986.4, 337.5 996 C 344.7 1005.6, 354 1018.2, 358.2 1024 C 362.3 1029.8, 369.5 1039.7, 374.1 1046 C 378.8 1052.3, 386.2 1062.4, 390.5 1068.4 C 394.9 1074.4, 400.4 1081.8, 402.7 1084.9 C 405.1 1088, 411.4 1096.6, 416.7 1104 C 422 1111.4, 432.2 1125.3, 439.2 1134.8 C 446.3 1144.3, 454.4 1155.4, 457.2 1159.6 C 463.8 1169.3, 465.3 1170.3, 472.1 1169.4 C 479.5 1168.4, 480.9 1166.6, 485.8 1151 C 488.2 1143.6, 492.8 1129.2, 496 1119.2 C 503.1 1097.6, 503 1098.6, 498.5 1092.1 C 495.7 1088.1, 494.7 1085.4, 494.1 1080.5 C 493.2 1072.7, 492.5 1071.9, 479.5 1062.8 C 474 1059, 464.8 1052.5, 459 1048.4 C 453.2 1044.3, 439.5 1034.9, 428.5 1027.5 C 417.5 1020.2, 400.6 1008.7, 391 1002 C 358.7 979.4, 302 941, 301 941 C 300.5 941, 300 941.8, 300 942.9 M 1529.7 956.2 C 1524.6 962.3, 1506.7 985.4, 1491 1006 C 1483.6 1015.7, 1470.2 1033.1, 1461.2 1044.6 C 1452.3 1056, 1445 1066.4, 1445 1067.5 C 1445 1068.6, 1446.9 1071.8, 1449.1 1074.5 C 1454.6 1081, 1456.2 1085.2, 1456.3 1092.5 C 1456.5 1102.9, 1448.7 1114.4, 1437.5 1120.3 L 1431.5 1123.5 1431.5 1129 C 1431.6 1134.9, 1433.6 1147.5, 1437.4 1166 C 1439.9 1177.9, 1443.7 1197.7, 1446.6 1213.5 C 1449.3 1228.6, 1450.7 1230.2, 1462.7 1231.7 C 1469.4 1232.4, 1468.5 1234.6, 1478.9 1193.5 C 1483.4 1175.9, 1488.6 1155.9, 1490.5 1149 C 1493.7 1137.3, 1503.8 1099.2, 1515 1056 C 1519.5 1039, 1525 1018.1, 1536.5 974 C 1540.2 960, 1540.7 957.1, 1539.7 955 C 1537.6 950.7, 1533.8 951.2, 1529.7 956.2 M 1348.3 998.5 C 1343.5 1002, 1336.3 1007.1, 1332.5 1009.8 C 1328.7 1012.5, 1316 1021.4, 1304.5 1029.6 C 1293 1037.8, 1279.2 1047.6, 1274 1051.3 C 1256.6 1063.5, 1240.7 1075.5, 1239.7 1077.1 C 1238.3 1079.3, 1239.6 1085.2, 1242.1 1087.8 L 1244.1 1090 1314.5 1090 C 1353.3 1090, 1386 1089.6, 1387.3 1089.1 C 1388.8 1088.5, 1390.7 1086.1, 1392.2 1082.8 C 1393.6 1079.9, 1397.1 1074.9, 1399.9 1071.7 C 1402.7 1068.5, 1405 1065.4, 1405 1064.9 C 1405 1064.4, 1402.9 1059.6, 1400.4 1054.3 C 1397.9 1049, 1394 1040.3, 1391.8 1035 C 1377.7 1001.6, 1374.4 995.7, 1368.3 993.6 C 1360.2 990.8, 1358.1 991.3, 1348.3 998.5 M 833.7 1012.7 C 832.2 1014.1, 833.2 1016.5, 838.2 1023.4 C 844.7 1032.2, 855.9 1048.7, 878.6 1082.7 C 898.2 1112.2, 896.6 1110.8, 908.8 1109.1 C 914.2 1108.4, 917.9 1108.4, 920.4 1109.1 C 927.9 1111.2, 929.9 1110.2, 936.8 1101.5 C 940.3 1097.1, 945.3 1090.8, 948 1087.5 C 977.8 1050.9, 976.8 1052.3, 975 1046.3 C 971.4 1034.3, 973.3 1028.8, 984.1 1020.6 C 993.1 1013.8, 992.9 1012.5, 983 1014.1 C 948.8 1019.5, 886.1 1019, 847 1013 C 839.4 1011.9, 834.6 1011.7, 833.7 1012.7 M 696 1044.2 C 691.6 1045.8, 689 1049.1, 689 1052.8 C 689 1056.6, 698.1 1077.8, 710.7 1103.5 C 712.6 1107.3, 716.9 1116.8, 720.2 1124.5 C 730.2 1147.7, 729.3 1146.6, 740.4 1148.5 C 743 1148.9, 745.7 1150.5, 748.9 1153.5 C 753.7 1158, 758 1160.3, 760.2 1159.5 C 761.9 1158.9, 780.7 1156.1, 790 1155 C 802.7 1153.5, 831.4 1149.3, 849 1146.5 C 874.6 1142.3, 874.1 1142.5, 876.4 1134.7 C 877.2 1131.8, 879.1 1127.8, 880.4 1125.9 C 884.6 1120.1, 886.1 1117, 885.5 1115.1 C 885.1 1113.7, 853.6 1066.6, 842.5 1050.7 C 837.7 1043.9, 841.4 1044.3, 766.5 1043.7 C 725.1 1043.4, 697.5 1043.6, 696 1044.2 M 1013.1 1050.3 C 1010.2 1053.8, 1001.8 1057.2, 994.4 1057.7 C 985.9 1058.4, 988.2 1056.4, 971.5 1077 C 966 1083.8, 956.7 1095.2, 950.8 1102.3 C 944.8 1109.4, 940 1116, 940 1116.9 C 940 1118.7, 946.2 1127.8, 948.7 1129.8 C 950.7 1131.2, 955.9 1131.4, 959.4 1130 C 960.8 1129.5, 965.7 1128.6, 970.2 1127.9 C 985 1125.9, 988.4 1125.3, 996.5 1123.7 C 1000.9 1122.9, 1007.9 1121.7, 1012 1121 C 1016.1 1120.4, 1023.1 1119.3, 1027.5 1118.5 C 1031.9 1117.7, 1037.3 1116.9, 1039.5 1116.6 C 1041.7 1116.3, 1047.8 1115.4, 1053 1114.6 C 1058.2 1113.7, 1065.7 1112.6, 1069.5 1112 C 1073.3 1111.4, 1078.1 1110.5, 1080 1110.1 C 1081.9 1109.6, 1088.5 1108.4, 1094.5 1107.5 C 1100.5 1106.6, 1108.7 1105.3, 1112.5 1104.5 C 1116.3 1103.8, 1124.9 1102.5, 1131.5 1101.5 C 1155.1 1098.2, 1159.4 1097.1, 1159.8 1094.1 C 1160.3 1090.8, 1158.5 1089.3, 1152.7 1088 C 1147.4 1086.8, 1138.3 1084.2, 1127.2 1080.8 C 1123.7 1079.7, 1118.5 1078.2, 1115.7 1077.5 C 1111 1076.3, 1085.3 1068.7, 1070.5 1064.1 C 1067.2 1063, 1056.4 1059.8, 1046.5 1057 C 1036.6 1054.1, 1026.5 1051.2, 1024.1 1050.4 C 1018.5 1048.6, 1014.6 1048.6, 1013.1 1050.3 M 642 1051.5 C 639.5 1052.2, 629.9 1054.8, 620.5 1057.3 C 611.1 1059.7, 598.3 1063.2, 592 1065 C 577.9 1069, 562.1 1073.3, 551.5 1076.1 C 539.1 1079.3, 536.6 1084.1, 545.7 1087 C 550.8 1088.7, 585 1102.2, 592.5 1105.5 C 595.8 1107, 603.5 1110.1, 609.5 1112.5 C 615.5 1114.8, 631.5 1121.2, 645 1126.8 C 658.5 1132.3, 673.5 1138.4, 678.5 1140.4 C 683.5 1142.5, 692.9 1146.3, 699.5 1149 C 712.1 1154.2, 714.8 1154.8, 716.8 1152.8 C 719.4 1150.2, 718.9 1148.9, 706 1121.5 C 700.4 1109.6, 687.7 1082.3, 683.3 1072.5 C 677.8 1060.3, 674.7 1057, 668.6 1057 C 665.2 1057, 663 1056.2, 659.1 1053.5 C 653.5 1049.6, 650 1049.2, 642 1051.5 M 528 1097.4 C 525.5 1098.7, 521.8 1100, 519.7 1100.4 C 515 1101.3, 513.9 1103, 509.5 1116.1 C 503.5 1133.8, 493 1167.7, 493 1169.3 C 493 1171.1, 505.5 1185.6, 507.8 1186.5 C 509.3 1187.1, 525.2 1185.6, 555 1182 C 564.1 1180.9, 578.5 1179.3, 587 1178.5 C 613.3 1175.9, 621.1 1175.1, 632.5 1173.6 C 645.4 1171.8, 657.6 1170.5, 683.3 1168.1 C 693.7 1167.1, 702.6 1165.8, 703.1 1165.3 C 704.8 1163.6, 700.2 1160.1, 694 1158.3 C 691 1157.5, 684.2 1154.8, 679 1152.4 C 673.8 1150.1, 665.2 1146.5, 660 1144.5 C 654.8 1142.6, 647.4 1139.6, 643.5 1138 C 639.6 1136.4, 628.9 1132.1, 619.5 1128.4 C 610.1 1124.7, 600 1120.6, 597 1119.2 C 594 1117.9, 586.5 1114.8, 580.5 1112.5 C 574.5 1110.1, 562.5 1105.4, 554 1102 C 535.4 1094.6, 533.9 1094.3, 528 1097.4 M 1243.7 1103.3 C 1242.4 1104.5, 1240.1 1108.5, 1238.5 1112.3 C 1231.8 1128.6, 1209.2 1138.6, 1190.4 1133.5 C 1182 1131.2, 1181 1131.7, 1172.9 1142 C 1158.4 1160.6, 1145.8 1176.3, 1134 1190.5 C 1127.1 1198.8, 1118.4 1209.6, 1114.5 1214.5 C 1110.7 1219.5, 1103 1228.9, 1097.4 1235.6 C 1086.4 1248.7, 1085.8 1249.6, 1087.2 1252.2 C 1088.3 1254.5, 1091.6 1254.5, 1103.2 1252.1 C 1112.5 1250.2, 1128.6 1247.1, 1143.5 1244.4 C 1147.9 1243.6, 1154.9 1242.3, 1159 1241.5 C 1163.1 1240.7, 1175.3 1238.4, 1186 1236.5 C 1196.7 1234.5, 1209.8 1232.1, 1215 1231 C 1225.9 1228.9, 1235.6 1227, 1252 1224 C 1283.1 1218.2, 1282.2 1218.4, 1285.8 1214.3 C 1295.3 1203.3, 1297.5 1202, 1307.5 1202 C 1314.4 1202, 1316.6 1200.4, 1330.5 1185.5 C 1337.1 1178.5, 1350.6 1164.1, 1360.5 1153.6 C 1382.8 1130, 1393.4 1118.2, 1394.9 1115.2 C 1396.6 1112, 1394.8 1106.8, 1390.8 1103.5 L 1387.8 1101 1316.9 1101 L 1246 1101.1 1243.7 1103.3 M 1146 1110.6 C 1142.4 1111.3, 1135 1112.6, 1129.5 1113.5 C 1124 1114.3, 1117 1115.5, 1114 1116 C 1111 1116.5, 1103.8 1117.6, 1098 1118.5 C 1087.6 1120, 1077.4 1121.7, 1061 1124.6 C 1046.3 1127.2, 1021.6 1131.4, 1011.5 1133 C 1007.6 1133.6, 998 1135.2, 990 1136.6 C 982 1138, 971.3 1139.8, 966.2 1140.6 C 953 1142.6, 951.7 1143.5, 949.1 1151.8 C 946.3 1160.5, 946.8 1161.8, 956 1168.9 C 959.6 1171.6, 965 1175.9, 968 1178.4 C 971 1180.9, 982.5 1190.1, 993.5 1198.7 C 1004.5 1207.4, 1021.4 1220.9, 1031 1228.8 C 1051.9 1246, 1053.4 1246.9, 1059.5 1245.2 C 1062 1244.5, 1066.5 1244, 1069.6 1244 C 1076.5 1244, 1076.1 1244.4, 1099.2 1215.5 C 1108.4 1203.9, 1120.9 1188.4, 1127 1181 C 1158.8 1142.2, 1171.3 1125.5, 1170.4 1122.8 C 1169.7 1120.5, 1163.1 1110.7, 1161.7 1109.8 C 1160 1108.7, 1153.5 1109, 1146 1110.6 M 871.5 1154.5 C 871 1154.7, 866.5 1155.3, 861.5 1155.9 C 850.5 1157.3, 841.2 1158.7, 830 1160.5 C 825.3 1161.3, 817.9 1162.4, 813.5 1163 C 809.1 1163.6, 801.5 1164.8, 796.5 1165.5 C 791.5 1166.3, 783.9 1167.4, 779.5 1168 C 759 1170.8, 758.1 1171, 755.8 1174.2 C 754.5 1175.8, 751.4 1179.5, 748.8 1182.4 C 743.2 1188.6, 743.2 1188.8, 746.5 1202.9 C 748.6 1211.9, 754.2 1237.7, 756.5 1248.7 C 757.6 1253.9, 761.2 1257, 766.3 1257 C 771.1 1257, 777.8 1252, 800.1 1231.9 C 804.7 1227.7, 815.5 1218.5, 824 1211.4 C 832.5 1204.4, 845.5 1193.1, 852.9 1186.5 C 860.3 1179.9, 869.3 1172, 872.9 1169 C 879.7 1163.2, 881.3 1160, 878.8 1156.9 C 877.5 1155.3, 873.4 1153.9, 871.5 1154.5 M 933 1173 C 930.1 1175.9, 930.4 1177.4, 937.1 1198.5 C 940.4 1209, 944 1220.7, 945 1224.5 C 946 1228.3, 948.3 1236, 950 1241.5 C 954.3 1255.3, 956.4 1262.2, 959 1271.5 C 966.4 1298.4, 966 1297.7, 974.8 1299 C 985 1300.4, 993 1306.9, 996.4 1316.6 C 999.1 1324, 1000.6 1326.4, 1003.2 1327.2 C 1004.5 1327.6, 1014 1330, 1024.5 1332.5 C 1035 1335, 1047.5 1338.2, 1052.5 1339.5 C 1057.5 1340.9, 1068 1343.6, 1076 1345.5 C 1084 1347.4, 1094.8 1350.2, 1100 1351.6 C 1105.2 1353.1, 1111.3 1354.6, 1113.5 1355 C 1117.4 1355.7, 1121.3 1356.7, 1139.3 1361.6 C 1144.1 1362.9, 1154 1365.3, 1161.3 1367.1 C 1168.6 1368.8, 1177.6 1371.1, 1181.4 1372.1 C 1186.1 1373.5, 1188.6 1373.8, 1189.3 1373.1 C 1191.8 1370.6, 1189.9 1368.9, 1149.5 1337.3 C 1138.5 1328.6, 1121.8 1315.5, 1112.5 1308 C 1103.2 1300.6, 1092.4 1292, 1088.6 1289 L 1081.7 1283.6 1070.5 1283.5 C 1060.1 1283.5, 1059.1 1283.3, 1055.3 1280.8 C 1047.9 1275.9, 1045.6 1271.9, 1045 1262.6 L 1044.5 1254.5 1015.9 1231.5 C 1000.1 1218.8, 980.6 1203.1, 972.5 1196.5 C 938.7 1169, 937.6 1168.4, 933 1173 M 881.2 1177.2 C 876.2 1181.8, 842.5 1210.8, 824 1226.5 C 811.7 1237, 787.3 1257.9, 783.1 1261.7 C 775.4 1268.5, 778.4 1276.8, 789.1 1278.5 C 791.5 1278.8, 795.5 1279.7, 798 1280.5 C 800.5 1281.2, 807 1282.8, 812.5 1284 C 818 1285.2, 828.1 1287.4, 835 1289 C 841.9 1290.6, 851.8 1292.9, 857 1294 C 869.7 1296.9, 885.7 1300.7, 895.5 1303.1 C 911.8 1307.1, 931.7 1311.3, 936.9 1311.7 L 942.2 1312.2 948.1 1306.4 C 954.9 1299.7, 954.9 1299.7, 951.4 1288.1 C 949.9 1283.4, 947.1 1273.9, 945 1267 C 942.9 1260.1, 939.8 1249.5, 938.1 1243.5 C 936.3 1237.5, 932.9 1225.8, 930.4 1217.5 C 927.9 1209.2, 925.6 1201.6, 925.4 1200.5 C 920.6 1181.2, 917.9 1177, 909.7 1177 C 906.5 1177, 902.2 1176, 898.5 1174.5 C 889.7 1170.9, 887.9 1171.1, 881.2 1177.2 M 690.5 1178.6 C 683.4 1179.2, 671 1180.6, 663 1181.5 C 655 1182.4, 642.2 1183.7, 634.5 1184.5 C 626.8 1185.3, 616.5 1186.4, 611.5 1187 C 606.5 1187.5, 596 1188.7, 588 1189.6 C 580 1190.4, 567.6 1191.8, 560.5 1192.6 C 553.4 1193.4, 540.6 1194.6, 532.2 1195.4 C 515.7 1196.8, 512.9 1197.8, 516.7 1201 C 518 1202, 521.3 1203.3, 524.2 1204 C 530.3 1205.3, 536.4 1207, 558 1213.4 C 566.5 1215.9, 577.5 1219, 582.5 1220.4 C 609.7 1228.1, 618 1230.5, 638.3 1236.6 C 650.5 1240.2, 665.2 1244.5, 671 1246.2 C 676.8 1247.8, 688 1251.1, 696 1253.5 C 735.4 1265.2, 737.7 1265.6, 742 1261.5 C 745.6 1258, 745.8 1255.3, 743.1 1243.1 C 742 1238.4, 739.7 1228, 738 1220 C 731.8 1191.4, 732.1 1192.3, 728.4 1189 C 726.5 1187.4, 724.3 1186, 723.5 1186 C 722.7 1186, 720.3 1184.5, 718.3 1182.6 C 711.2 1176.4, 712 1176.5, 690.5 1178.6 M 516 1215.3 C 516 1217.2, 517.8 1218.6, 530.5 1227.2 C 536.5 1231.3, 546.7 1238.4, 553 1243.1 C 562.8 1250.4, 587.6 1267.9, 617.7 1288.9 C 627.4 1295.6, 627.7 1295.6, 672 1286 C 680.8 1284.1, 689.1 1282.5, 709.5 1278.9 C 716.1 1277.7, 721.9 1276.4, 722.4 1275.9 C 724.2 1274.2, 719.8 1271.1, 714.1 1270 C 711 1269.4, 705.8 1268.1, 702.5 1267.1 C 699.2 1266.1, 692.2 1264, 687 1262.5 C 681.8 1261, 674.8 1258.9, 671.5 1257.9 C 668.2 1256.9, 660.8 1254.7, 655 1253 C 649.2 1251.3, 641.6 1249, 638 1248 C 634.4 1246.9, 626.5 1244.7, 620.5 1243 C 614.5 1241.3, 605.5 1238.8, 600.5 1237.4 C 595.5 1236, 590.6 1234.6, 589.5 1234.3 C 588.4 1234.1, 581.2 1231.9, 573.5 1229.5 C 565.8 1227.1, 555.2 1223.9, 550 1222.5 C 544.8 1221, 536.3 1218.5, 531.2 1216.9 C 521.1 1213.7, 516 1213.2, 516 1215.3 M 487.9 1220 C 481.3 1223.5, 481.5 1222.7, 478.5 1259.5 C 477.6 1270.5, 476.5 1284.4, 476 1290.4 C 474.8 1303.4, 475.4 1305.2, 482.2 1309.1 C 484.8 1310.6, 488.5 1313.7, 490.6 1315.9 C 494.7 1320.5, 497 1320.9, 504.8 1318.6 C 507.4 1317.8, 512.6 1316.7, 516.5 1316.1 C 526 1314.6, 536.2 1312.6, 550.5 1309.5 C 557.1 1308.1, 565.2 1306.5, 568.5 1306 C 580.4 1304.1, 604.4 1299, 605.3 1298.1 C 606.9 1296.5, 605.5 1293.6, 602 1291.3 C 594.9 1286.7, 573.2 1271.3, 563.5 1264 C 558 1259.9, 550.8 1254.7, 547.5 1252.6 C 544.2 1250.4, 537.5 1245.7, 532.5 1242 C 524 1235.8, 519.3 1232.4, 504.7 1222.2 C 497.7 1217.4, 493.8 1216.9, 487.9 1220 M 1275.5 1231.5 C 1271.7 1232.2, 1263.5 1233.8, 1257.5 1234.9 C 1246.1 1237.2, 1233.9 1239.4, 1223.5 1241.1 C 1220.2 1241.6, 1214.6 1242.7, 1211 1243.5 C 1207.4 1244.2, 1201.6 1245.3, 1198 1245.9 C 1186.5 1247.9, 1163.7 1252, 1156.5 1253.4 C 1152.7 1254.2, 1144.8 1255.8, 1139 1256.9 C 1133.2 1258, 1124.5 1259.7, 1119.5 1260.5 C 1095.4 1264.7, 1090.2 1266.2, 1089.4 1269.6 C 1088.4 1273.7, 1089.9 1275.6, 1103.2 1286.1 C 1110.4 1291.8, 1124.2 1302.8, 1133.8 1310.5 C 1143.3 1318.2, 1160.5 1331.9, 1171.9 1341 C 1183.3 1350.1, 1195.1 1359.5, 1198 1361.8 C 1203.9 1366.6, 1202.3 1366.4, 1217.8 1364.1 C 1221.8 1363.5, 1225.9 1362.6, 1226.9 1362.1 C 1228.5 1361.2, 1243.8 1331.9, 1252.7 1312.5 C 1255.6 1306.3, 1273.3 1269.7, 1285.7 1244.2 C 1290.1 1235.3, 1290.2 1234.9, 1288.6 1232.5 C 1286.8 1229.7, 1285.9 1229.6, 1275.5 1231.5 M 716 1289 C 692.8 1293.7, 682.2 1295.7, 671.5 1297.6 C 641.9 1302.8, 639.7 1303.8, 645.5 1308.6 C 648.8 1311.4, 663.4 1322, 680.6 1334.2 C 712.4 1356.7, 723.7 1364.9, 743.2 1379 C 754.9 1387.6, 767.9 1396.9, 772 1399.8 C 776.1 1402.7, 784.5 1408.7, 790.7 1413 C 801.6 1420.9, 805.3 1422.3, 807.8 1419.8 C 809.6 1418, 809.3 1416.1, 805.4 1407 C 803.5 1402.3, 799.9 1393.8, 797.6 1388 C 795.2 1382.2, 791.1 1372.5, 788.5 1366.5 C 779.1 1345, 776.8 1339.4, 772.4 1328.5 C 769.9 1322.5, 765.8 1313.2, 763.2 1308 L 758.5 1298.5 752.2 1296.5 C 748.2 1295.2, 744 1292.9, 740.8 1290.2 C 734.9 1285.2, 735.2 1285.2, 716 1289 M 774.5 1290.5 C 770.5 1294.4, 771 1296.1, 781.9 1321 C 784.2 1326.2, 787 1332.5, 788 1335 C 789 1337.5, 791.8 1343.8, 794.1 1349 C 796.4 1354.2, 799.1 1360.8, 800.1 1363.5 C 805.7 1379, 819.9 1410.4, 822.1 1412.2 C 823.6 1413.5, 826 1414, 830.9 1414 C 835.8 1414, 838.9 1414.6, 842.8 1416.5 C 851.6 1420.6, 851.7 1420.5, 865.5 1408 C 868.3 1405.5, 876.6 1398.3, 884 1392 C 891.4 1385.7, 900.9 1377.3, 905 1373.5 C 909.2 1369.7, 918.8 1361.2, 926.4 1354.6 C 944.2 1339.2, 943.8 1339.9, 940.5 1331.7 C 937.6 1324.6, 935.5 1323, 926.4 1321.5 C 924.3 1321.1, 915.5 1319.1, 907 1317 C 898.5 1314.9, 888.1 1312.4, 884 1311.5 C 879.9 1310.6, 872 1308.8, 866.5 1307.5 C 861 1306.2, 853.4 1304.4, 849.5 1303.6 C 845.6 1302.7, 838.5 1301.1, 833.5 1300 C 828.5 1298.8, 821.8 1297.2, 818.5 1296.5 C 815.2 1295.8, 805.4 1293.5, 796.7 1291.6 C 777.8 1287.3, 777.6 1287.3, 774.5 1290.5"/></svg>
